<svg width="56" height="56" viewBox="0 0 56 56" fill="none" xmlns="http://www.w3.org/2000/svg">
<path d="M11.8428 46.7381C11.1109 46.7381 10.8981 46.3086 10.8981 45.6648C10.8981 45.4502 10.9249 45.2082 10.9579 44.9533C11.1181 43.8399 11.5094 43.203 12.4541 43.203C13.0929 43.203 13.4045 43.4912 13.4045 44.0145V44.2695H14.0382C14.0453 44.2695 14.0453 44.0347 14.0453 43.9813C14.0453 43.2167 13.586 42.4915 12.4551 42.4915C10.9182 42.4915 10.2861 43.3334 10.0533 44.9837C10.0191 45.1983 10.0012 45.4153 10 45.6326C10 46.6053 10.3795 47.49 11.7365 47.49C12.7677 47.49 13.38 46.9831 13.7391 46.3592L13.1336 45.9482C12.7412 46.5721 12.3152 46.7381 11.8428 46.7381ZM16.0011 43.6657C14.77 43.6657 14.2381 44.3027 14.0585 45.5703C14.0382 45.7185 14.0249 45.8725 14.0249 46.0132C14.0249 46.8315 14.4041 47.4825 15.4549 47.4825C16.686 47.4825 17.225 46.8182 17.4046 45.5703C17.4246 45.4095 17.4379 45.262 17.4379 45.1145C17.4382 44.2828 17.0458 43.6657 16.0011 43.6657ZM16.5133 45.5707C16.3802 46.49 16.0944 46.7716 15.5551 46.7716C15.123 46.7716 14.9102 46.5906 14.9102 46.0471C14.9102 45.9129 14.9237 45.7521 14.9502 45.5707C15.0833 44.6586 15.3494 44.3769 15.8948 44.3769C16.3341 44.3769 16.5533 44.558 16.5533 45.108C16.5533 45.2421 16.5397 45.3965 16.5133 45.5707ZM20.5324 42.5582L20.3264 43.7896C20.3132 43.8967 20.3199 43.8612 20.36 43.9618C20.1672 43.8143 19.821 43.7167 19.5881 43.7167C18.4836 43.7167 17.8652 44.2209 17.6656 45.6295C17.6392 45.7972 17.6324 45.9386 17.6324 46.0793C17.6324 47.106 18.2311 47.4886 19.0359 47.4886C19.3757 47.4886 19.708 47.4958 19.9673 47.2747L20.0335 47.6919H20.6723L21.4173 42.5582H20.5324ZM19.9004 46.5769C19.6675 46.7187 19.4013 46.7951 19.1292 46.7983C18.6435 46.7983 18.5105 46.5433 18.5105 46.1344C18.5105 45.98 18.5305 45.7993 18.5573 45.6042C18.71 44.5378 19.0495 44.3495 19.4887 44.3495C19.7745 44.3495 19.9938 44.3968 20.2005 44.5111L19.9004 46.5769ZM23.3602 43.6657C22.1423 43.6657 21.5707 44.2489 21.3776 45.5703C21.3572 45.7315 21.344 45.8859 21.344 46.0334C21.344 46.939 21.8032 47.4825 22.8141 47.4825C23.5992 47.4825 24.185 47.1536 24.4976 46.5499L23.8256 46.2747C23.6328 46.5697 23.3734 46.7709 22.9142 46.7709C22.422 46.7709 22.2224 46.6375 22.2224 46.1946C22.2224 46.1073 22.2292 45.9803 22.2425 45.9803H24.6439C24.6775 45.6381 24.7169 45.3961 24.7169 45.1956C24.7169 44.5251 24.4644 43.6657 23.3602 43.6657ZM23.8191 45.2962H22.3555C22.5021 44.9539 22.7479 44.4242 23.2536 44.4242C23.646 44.4242 23.8391 44.6555 23.8391 45.0511C23.8388 45.1182 23.8327 45.2962 23.8191 45.2962ZM27.2772 43.585L27.357 42.9005H25.4806L25.4012 43.585H25.8933L25.3615 47.0074H24.8686L24.7892 47.6919H26.6652L26.7453 47.0074H26.2528L26.7847 43.585H27.2772ZM31.0896 44.6117L31.3293 43.9272H30.684L30.2187 44.0241C29.959 43.8567 29.6063 43.7311 29.274 43.7311C28.3223 43.7311 27.5111 44.1945 27.5111 45.2479C27.5111 45.5433 27.6173 45.7818 27.7436 45.943C27.5443 46.0502 27.3712 46.2295 27.3712 46.4715C27.3712 46.5786 27.4109 46.6885 27.491 46.7887C27.0915 47.0307 26.8461 47.4315 26.8461 47.9007C26.8461 48.8066 27.784 49 28.5025 49C29.4071 49 30.4851 48.7916 30.4851 47.631C30.4851 47.2354 30.239 46.9263 29.5273 46.7922L28.2432 46.5502C28.0969 46.5232 28.0636 46.4763 28.0636 46.4092C28.0636 46.3086 28.1241 46.2552 28.2235 46.2552L28.3101 46.2685C28.4832 46.3086 28.6828 46.3291 28.8888 46.3291C29.8137 46.3291 30.6385 45.9263 30.6385 44.88C30.6385 44.7322 30.6121 44.6322 30.5455 44.471C30.6586 44.5248 30.8052 44.612 30.8646 44.612L31.0896 44.6117ZM29.2605 47.3884C29.513 47.4356 29.5992 47.5294 29.5992 47.6971C29.5992 48.2406 29.0205 48.3076 28.6016 48.3076C27.9628 48.3076 27.7235 48.1536 27.7235 47.811C27.7235 47.5092 27.8098 47.3685 28.0097 47.1536L29.2605 47.3884ZM28.9872 45.6313C28.6013 45.6313 28.3885 45.4906 28.3885 45.1548C28.3885 44.6586 28.6746 44.3701 29.1736 44.3701C29.5727 44.3701 29.7659 44.5378 29.7659 44.866C29.7659 45.3626 29.4862 45.6313 28.9872 45.6313ZM33.4531 43.6657C33.0804 43.6657 32.7481 43.8502 32.3353 44.1784L32.2756 43.9272H31.5435L31.0313 47.6919H31.9161L32.3021 44.8369C32.5617 44.676 32.8808 44.4423 33.1537 44.4423C33.486 44.4423 33.6062 44.6042 33.6062 44.9125C33.6062 44.9865 33.599 45.2052 33.5858 45.2856L33.2603 47.6919H34.1452L34.4707 45.2661C34.4843 45.1525 34.4975 44.9656 34.4975 44.8585C34.4978 44.2205 34.1981 43.6657 33.4531 43.6657ZM36.1783 46.7487L36.1851 46.6566L36.5707 43.9272H35.1003L35.0076 44.6117H35.6526C35.5993 44.6117 35.566 44.6716 35.5596 44.7257L35.2934 46.5433C35.2807 46.6572 35.2741 46.7717 35.2738 46.8863C35.2738 47.3558 35.5263 47.6919 36.0449 47.6919H36.4974L36.5972 47.0074H36.3114C36.2113 47.0074 36.1783 46.8291 36.1783 46.7487ZM36.7503 42.5582H35.8854C35.8321 42.5582 35.8321 42.3607 35.8257 42.4278L35.7055 43.3923C35.6987 43.4528 35.6987 43.585 35.752 43.585H36.6172C36.6705 43.585 36.6705 43.3505 36.677 43.2896L36.7971 42.5452C36.8039 42.4781 36.8039 42.5582 36.7503 42.5582ZM38.5547 46.7716C38.3354 46.7716 38.2288 46.6775 38.2288 46.4766L38.2356 46.4629L38.5149 44.6117H39.5261L39.8319 43.9272H38.608L38.814 42.421L37.8829 42.7211L37.7163 43.9272H37.1776L37.0846 44.6117H37.7098C37.6501 44.9539 37.59 44.7318 37.5836 44.7993L37.3439 46.4225C37.3307 46.4965 37.3307 46.5502 37.3307 46.6169C37.3307 47.2542 37.7964 47.4927 38.3558 47.4927C38.8744 47.4927 39.2936 47.3401 39.6198 47.0646L39.207 46.5526C39.0003 46.6799 38.8608 46.7716 38.5547 46.7716ZM41.8013 43.6657C40.5838 43.6657 40.0118 44.2489 39.8187 45.5703C39.7987 45.7315 39.7854 45.8859 39.7854 46.0334C39.7854 46.939 40.2443 47.4825 41.2555 47.4825C42.0406 47.4825 42.6264 47.1536 42.9387 46.5499L42.267 46.2747C42.0742 46.5697 41.8145 46.7709 41.3553 46.7709C40.8634 46.7709 40.6635 46.6375 40.6635 46.1946C40.6635 46.1073 40.6707 45.9803 40.6839 45.9803H43.0853C43.1186 45.6381 43.1587 45.3961 43.1587 45.1956C43.1587 44.5251 42.9058 43.6657 41.8013 43.6657ZM42.2605 45.2962H40.7969C40.9432 44.9539 41.189 44.4242 41.695 44.4242C42.0874 44.4242 42.2806 44.6555 42.2806 45.0511C42.2802 45.1182 42.2738 45.2962 42.2605 45.2962ZM45.6069 43.6657C45.2875 43.6657 44.9882 43.8502 44.6888 44.138L44.6355 43.9272H43.904L43.3915 47.6919H44.2832L44.6756 44.7767C44.9084 44.636 45.1745 44.5159 45.4274 44.5159C45.5873 44.5159 45.74 44.4902 45.8863 44.5104L46 43.7325C45.8663 43.7058 45.7332 43.6657 45.6069 43.6657ZM23.0136 39.8616C20.9998 38.9841 19.1153 36.7534 19.1109 34.4709C19.1055 31.9824 20.6696 29.8697 22.6148 28.4812C22.381 29.3721 22.2533 30.187 22.8327 30.9837C23.1005 31.3481 23.4665 31.6272 23.8872 31.7877C24.3078 31.9483 24.7654 31.9835 25.2053 31.8893C27.2867 31.43 27.3821 29.1229 26.1483 27.7789C24.9284 26.4479 23.7482 24.9444 24.2125 23.0142C24.445 22.0466 25.0343 21.1404 25.7807 20.4925C25.207 22.0127 26.8373 23.5121 27.9116 24.2589C29.775 25.5547 31.8194 26.5338 33.5328 28.0527C35.3352 29.649 36.6661 31.8075 36.3973 34.3107C36.106 37.0241 33.9676 38.9112 31.5692 39.864C36.6376 38.736 41.8746 34.7697 41.9819 29.1017C42.0708 24.4389 38.8985 20.8505 34.9686 18.796L34.7633 18.683C34.8712 18.9469 34.9065 19.1714 34.9024 19.3723C34.9389 19.2223 34.961 19.069 34.9683 18.9147C34.9673 19.1014 34.9432 19.2872 34.8963 19.4678L34.9024 19.3723C34.8441 19.6199 34.7458 19.8561 34.6115 20.0715L34.6692 20.0089C33.8852 21.32 31.7627 21.6048 30.7142 20.2471C29.0286 18.0632 30.7495 15.7085 30.9902 13.396C31.2916 10.4975 29.4889 7.68386 27.2538 6C28.4849 8.00797 26.8631 10.6645 25.5655 12.1495C24.3072 13.5893 22.7771 14.7913 21.3881 16.0994C19.896 17.5043 18.4616 18.9842 17.2352 20.6331C14.7825 23.9334 13.2809 28.0842 14.3844 32.2018C15.4872 36.3163 19.022 38.9355 23.0136 39.8616Z" fill="#F24E1E"/>
</svg>
