<svg width="56" height="56" viewBox="0 0 56 56" fill="none" xmlns="http://www.w3.org/2000/svg">
<path d="M6.29285 31.1371V26.1416H12.5457V25.8494H6.29285V21.2921H12.9411V21H6V31.4292H12.9996V31.1371H6.29285ZM18.6375 23.9213L16.0456 27.3247L13.5122 23.9214H13.1314L15.8699 27.5439L12.8678 31.4291H13.2192L16.0455 27.7628L18.8863 31.4291H19.2524L16.2358 27.5437L18.9888 23.9212L18.6375 23.9213ZM20.1311 34V29.3259H20.1604C20.3362 30.0076 20.6827 30.5553 21.2002 30.9692C21.7176 31.383 22.3765 31.59 23.177 31.59C23.6944 31.59 24.1533 31.4853 24.5535 31.2759C24.9538 31.0666 25.2881 30.7818 25.5566 30.4214C25.825 30.0611 26.0301 29.6424 26.1717 29.1652C26.3132 28.6881 26.384 28.1866 26.384 27.6608C26.384 27.096 26.3107 26.575 26.1643 26.0979C26.0179 25.6207 25.8055 25.2068 25.5274 24.8563C25.2491 24.5057 24.9123 24.233 24.5169 24.0383C24.1216 23.8435 23.6749 23.7461 23.177 23.7461C22.7963 23.7461 22.4424 23.8022 22.1154 23.9141C21.7883 24.0262 21.4979 24.1843 21.2441 24.3888C20.9888 24.5949 20.7666 24.8388 20.5851 25.1119C20.3996 25.3894 20.2581 25.6937 20.1604 26.0248H20.1311V23.9213H19.8383V34H20.1311ZM23.177 31.3123C22.2594 31.3123 21.5223 30.9983 20.9658 30.3702C20.4094 29.7422 20.1311 28.8389 20.1311 27.6607C20.1311 27.1737 20.1995 26.7112 20.3362 26.273C20.4729 25.8349 20.6705 25.4502 20.9292 25.1191C21.1879 24.788 21.5077 24.5251 21.8883 24.3304C22.2691 24.1356 22.6987 24.0382 23.177 24.0382C23.6651 24.0382 24.0923 24.1356 24.4583 24.3304C24.8244 24.5251 25.1271 24.7905 25.3663 25.1264C25.6054 25.4624 25.786 25.847 25.9081 26.2803C26.0301 26.7137 26.0911 27.1737 26.0911 27.6607C26.0911 28.0989 26.035 28.5347 25.9227 28.968C25.8105 29.4013 25.6371 29.7908 25.4028 30.1366C25.1686 30.4822 24.8684 30.7646 24.5023 30.9837C24.1361 31.2028 23.6944 31.3123 23.177 31.3123ZM27.9948 31.4292V27.1786C27.9948 26.7697 28.0533 26.3703 28.1706 25.9809C28.2877 25.5914 28.4683 25.2481 28.7123 24.9512C28.9564 24.6541 29.2663 24.4204 29.6422 24.25C30.018 24.0795 30.4647 24.009 30.9821 24.0382V23.7461C30.533 23.7364 30.1401 23.785 29.8033 23.8921C29.4664 23.9992 29.1761 24.1453 28.932 24.3304C28.6879 24.5154 28.4927 24.732 28.3463 24.9803C28.2 25.2283 28.0914 25.4966 28.0241 25.7764H27.9948V23.9213H27.702V31.4293L27.9948 31.4292ZM31.3482 27.7337H37.6449C37.6645 27.2176 37.6133 26.721 37.4912 26.2438C37.3692 25.7667 37.1739 25.343 36.9055 24.9731C36.637 24.603 36.2904 24.306 35.8658 24.082C35.4411 23.858 34.9359 23.7461 34.3502 23.7461C33.9303 23.7461 33.5203 23.8337 33.1201 24.0091C32.7198 24.1843 32.3683 24.4399 32.0657 24.7758C31.7631 25.1118 31.519 25.5232 31.3336 26.0102C31.1481 26.497 31.0553 27.0521 31.0553 27.6753C31.0553 28.2303 31.1188 28.7489 31.2457 29.2309C31.3726 29.7129 31.5678 30.1317 31.8314 30.4871C32.0951 30.8425 32.4343 31.1176 32.8492 31.3123C33.264 31.5071 33.7644 31.5996 34.3502 31.5899C35.2092 31.5899 35.9317 31.3488 36.5174 30.8669C37.1032 30.3848 37.4497 29.7056 37.5571 28.8292H37.2643C37.1374 29.657 36.8127 30.2777 36.2904 30.6915C35.7681 31.1054 35.1117 31.3123 34.3208 31.3123C33.7839 31.3123 33.3299 31.2198 32.959 31.0349C32.5881 30.8499 32.2854 30.5966 32.051 30.2753C31.8168 29.9539 31.6435 29.5766 31.5313 29.1432C31.4189 28.71 31.3579 28.2401 31.3482 27.7337ZM37.3521 27.4416H31.3483C31.3775 26.9157 31.4751 26.4435 31.641 26.0247C31.8071 25.606 32.0242 25.2481 32.2927 24.9512C32.5612 24.6541 32.8736 24.4278 33.2299 24.2719C33.5862 24.1161 33.9694 24.0382 34.3794 24.0382C34.8676 24.0382 35.297 24.1283 35.6681 24.3085C36.039 24.4886 36.349 24.7345 36.598 25.0461C36.8469 25.3577 37.0348 25.7205 37.1617 26.1342C37.2886 26.5481 37.3521 26.9839 37.3521 27.4416ZM43.7221 26.1416H44.015C44.015 25.3041 43.7709 24.6955 43.2829 24.3157C42.7946 23.9359 42.1308 23.7461 41.2913 23.7461C40.8226 23.7461 40.4273 23.8045 40.1051 23.9214C39.783 24.0382 39.5194 24.1891 39.3143 24.3741C39.1094 24.5591 38.9629 24.7636 38.8751 24.9876C38.7872 25.2116 38.7432 25.4259 38.7432 25.6303C38.7432 26.0393 38.8164 26.3655 38.9629 26.609C39.1094 26.8524 39.3388 27.0423 39.6511 27.1786C39.8659 27.276 40.1099 27.3636 40.3833 27.4417C40.6567 27.5195 40.974 27.6023 41.3352 27.6898C41.6573 27.7679 41.9746 27.8457 42.2871 27.9236C42.5994 28.0015 42.8752 28.1062 43.1144 28.2376C43.3536 28.3691 43.5488 28.5371 43.7002 28.7416C43.8514 28.9461 43.9271 29.2139 43.9271 29.5449C43.9271 29.8663 43.8515 30.139 43.7002 30.3629C43.5501 30.5857 43.3526 30.7728 43.1217 30.9107C42.8874 31.0519 42.6262 31.1541 42.3383 31.2174C42.0503 31.2807 41.7696 31.3123 41.4963 31.3123C40.6079 31.3123 39.9269 31.1152 39.4535 30.7208C38.98 30.3264 38.7433 29.7056 38.7433 28.8584H38.4504C38.4504 29.803 38.7066 30.4944 39.2191 30.9326C39.7317 31.3708 40.4907 31.5899 41.4963 31.5899C41.8184 31.5899 42.143 31.5533 42.4701 31.4803C42.7971 31.4073 43.09 31.288 43.3487 31.1224C43.6051 30.9592 43.8206 30.7393 43.9783 30.4798C44.1394 30.2168 44.22 29.8955 44.22 29.5157C44.22 29.1554 44.1492 28.8633 44.0077 28.6393C43.8661 28.4154 43.6806 28.2303 43.4512 28.0843C43.2218 27.9382 42.9631 27.8238 42.6751 27.741C42.3854 27.6578 42.095 27.5774 41.8037 27.5C41.4453 27.4062 41.0865 27.3137 40.7274 27.2225C40.42 27.1445 40.1344 27.0521 39.8708 26.9449C39.617 26.8378 39.4144 26.6845 39.2631 26.4848C39.1117 26.2852 39.0362 26.0004 39.0362 25.6303C39.0362 25.5622 39.0557 25.4404 39.0947 25.2652C39.1337 25.0898 39.2265 24.9121 39.3729 24.732C39.5194 24.5519 39.7438 24.3912 40.0465 24.25C40.3491 24.1088 40.7641 24.0382 41.2913 24.0382C41.6525 24.0382 41.9819 24.0772 42.2797 24.155C42.5774 24.233 42.8337 24.3571 43.0484 24.5275C43.2633 24.698 43.4292 24.9146 43.5463 25.1775C43.6635 25.4405 43.7221 25.7618 43.7221 26.1416ZM50.5021 26.1416H50.795C50.795 25.3041 50.551 24.6955 50.0628 24.3157C49.5747 23.9359 48.9108 23.7461 48.0712 23.7461C47.6027 23.7461 47.2073 23.8045 46.8851 23.9214C46.5629 24.0382 46.2993 24.1891 46.0944 24.3741C45.8893 24.5591 45.7429 24.7636 45.655 24.9876C45.5671 25.2116 45.5233 25.4259 45.5233 25.6303C45.5233 26.0393 45.5965 26.3655 45.743 26.609C45.8893 26.8524 46.1188 27.0423 46.4312 27.1786C46.646 27.276 46.89 27.3636 47.1633 27.4417C47.4366 27.5195 47.7539 27.6023 48.1152 27.6898C48.4374 27.7679 48.7547 27.8457 49.067 27.9236C49.3795 28.0015 49.6552 28.1062 49.8944 28.2376C50.1336 28.3691 50.3289 28.5371 50.4801 28.7416C50.6315 28.9461 50.7071 29.2139 50.7071 29.5449C50.7071 29.8663 50.6315 30.139 50.4801 30.3629C50.3301 30.5857 50.1326 30.7728 49.9018 30.9107C49.6674 31.0519 49.4063 31.1541 49.1183 31.2174C48.8303 31.2807 48.5496 31.3123 48.2763 31.3123C47.3879 31.3123 46.707 31.1152 46.2335 30.7208C45.76 30.3264 45.5233 29.7056 45.5233 28.8584H45.2304C45.2304 29.803 45.4866 30.4944 45.9992 30.9326C46.5117 31.3708 47.2707 31.5899 48.2763 31.5899C48.5985 31.5899 48.9231 31.5533 49.2501 31.4803C49.5771 31.4073 49.87 31.288 50.1287 31.1224C50.3852 30.9592 50.6006 30.7393 50.7584 30.4798C50.9195 30.2168 51 29.8955 51 29.5157C51 29.1554 50.9292 28.8633 50.7877 28.6393C50.6462 28.4154 50.4607 28.2303 50.2312 28.0843C50.0018 27.9382 49.7431 27.8238 49.4551 27.741C49.1655 27.6578 48.875 27.5774 48.5838 27.5C48.2254 27.4062 47.8666 27.3137 47.5075 27.2225C47.2 27.1445 46.9144 27.0521 46.6508 26.9449C46.397 26.8378 46.1944 26.6845 46.0431 26.4848C45.8918 26.2852 45.8161 26.0004 45.8161 25.6303C45.8161 25.5622 45.8356 25.4404 45.8747 25.2652C45.9138 25.0898 46.0066 24.9121 46.1529 24.732C46.2993 24.5519 46.5239 24.3912 46.8265 24.25C47.1292 24.1088 47.5441 24.0382 48.0713 24.0382C48.4325 24.0382 48.762 24.0772 49.0597 24.155C49.3575 24.233 49.6137 24.3571 49.8285 24.5275C50.0433 24.698 50.2092 24.9146 50.3264 25.1775C50.4436 25.4405 50.5022 25.7618 50.5022 26.1416" fill="white"/>
</svg>
