<svg width="56" height="56" viewBox="0 0 56 56" fill="none" xmlns="http://www.w3.org/2000/svg">
<g clip-path="url(#clip0_1_5858)">
<path d="M12.4445 12.4445H43.5556V43.5556H12.4445V12.4445Z" fill="#8B5CF6"/>
<path d="M30.0844 36.9588V27.16C30.0844 27.16 30.7216 24.8155 22.2333 28.1195C22.2183 28.1618 22.2183 19.0575 22.2183 19.0575L24.9922 19.04V24.8728C24.9922 24.8728 32.7575 21.8139 32.7575 27.1924V36.9588H30.0844ZM31.6649 22.5705H28.723C29.782 21.2763 30.7403 19.0575 30.7403 19.0575H33.7817C33.7829 19.0575 33.2615 20.5035 31.6649 22.5705ZM22.2681 36.9426V31.3625L25.0581 34.1526L22.2681 36.9426Z" fill="#1E2235"/>
</g>
<defs>
<clipPath id="clip0_1_5858">
<rect width="31.1111" height="31.1111" fill="white" transform="translate(12.4445 12.4445)"/>
</clipPath>
</defs>
</svg>
