<svg width="56" height="56" viewBox="0 0 56 56" fill="none" xmlns="http://www.w3.org/2000/svg">
<g clip-path="url(#clip0_109_333)">
<path d="M40.2011 27.2218C40.2011 25.6326 38.9147 24.3441 37.3278 24.3441C37.2257 24.3441 37.1251 24.3496 37.0258 24.3601L40.9722 12.7028H24.2011L28.1421 24.3499C28.0839 24.3463 28.0257 24.3444 27.9674 24.3443C26.3806 24.3443 25.0941 25.6324 25.0941 27.2219C25.0941 28.5065 25.9348 29.5941 27.0949 29.9641C26.4822 31.0271 25.7111 31.9846 24.8357 32.8119C23.6453 33.9365 22.2829 34.7894 20.8094 35.3149C19.055 34.4122 18.2266 32.4049 18.9741 30.6449C19.0585 30.4461 19.1447 30.2447 19.227 30.0441C20.498 29.747 21.4452 28.6059 21.4452 27.2425C21.4452 25.6532 20.1587 24.3648 18.5718 24.3648C16.9849 24.3648 15.6985 25.6532 15.6985 27.2425C15.6985 28.2171 16.1826 29.0779 16.9227 29.5985C16.2116 31.2201 15.1662 32.9173 14.8405 34.8844C14.4501 37.2417 14.8391 39.744 16.8749 41.1572C21.6161 44.4482 26.7627 39.117 32.189 37.7768C34.1555 37.2912 36.3143 37.3694 38.0469 36.3645C39.348 35.6097 40.2058 34.3589 40.4492 32.9547C40.6898 31.5675 40.3392 30.1863 39.5328 29.0663C39.9654 28.5494 40.2021 27.8962 40.2011 27.2218Z" fill="#99425B"/>
<path d="M39.7579 32.8344C39.5466 34.0536 38.7948 35.1184 37.6953 35.7563C36.6704 36.3508 35.4422 36.5282 34.1417 36.716C33.4451 36.8165 32.7248 36.9207 32.0211 37.0944C30.1604 37.554 28.3581 38.4506 26.6153 39.3176C23.1273 41.0527 20.1151 42.551 17.2749 40.5795C15.1944 39.1354 15.2904 36.4635 15.5328 34.9994C15.7574 33.6428 16.3648 32.3935 16.952 31.1854C17.0521 30.9801 17.1513 30.7743 17.2497 30.5682C17.5458 30.6868 17.8564 30.7648 18.1732 30.8002C17.5754 32.7762 18.5155 34.9248 20.4888 35.94L20.7589 36.079L21.0448 35.977C22.6049 35.4206 24.0424 34.5278 25.3174 33.323C26.1415 32.5442 26.8501 31.6827 27.4326 30.7621C27.6096 30.7889 27.7884 30.8023 27.9675 30.8023C29.7786 30.8023 31.2784 29.4463 31.5105 27.695C32.2518 27.6678 33.0392 27.6676 33.7848 27.6948C34.0167 29.4463 35.5167 30.8024 37.3278 30.8024C38.0851 30.8024 38.7875 30.5647 39.3662 30.161C39.768 30.9846 39.9179 31.9113 39.7579 32.8344ZM18.572 25.0677C19.7694 25.0677 20.7435 26.0433 20.7435 27.2426C20.7438 27.6577 20.6248 28.0641 20.4006 28.4132C20.0397 28.977 19.4261 29.3635 18.7212 29.4117C18.6718 29.415 18.6221 29.4174 18.572 29.4174C18.3051 29.4174 18.0495 29.3687 17.8131 29.2801C17.3371 29.1009 16.9385 28.7608 16.686 28.3187C16.4986 27.9912 16.4001 27.6201 16.4003 27.2426C16.4003 26.0433 17.3745 25.0677 18.572 25.0677ZM25.7961 27.2219C25.7961 26.1323 26.6003 25.2276 27.6453 25.0712C27.7505 25.0553 27.8581 25.0471 27.9676 25.0471C28.6638 25.0471 29.2836 25.3773 29.6811 25.8891C29.7806 26.0167 29.8657 26.155 29.9346 26.3015C30.0696 26.5895 30.1394 26.9038 30.1391 27.2219C30.1391 27.3957 30.1181 27.5647 30.0795 27.7269C29.8679 28.6141 29.1124 29.2924 28.1867 29.3857C28.1147 29.393 28.0417 29.3967 27.9676 29.3967C27.5499 29.397 27.1411 29.276 26.7907 29.0482C26.1929 28.6604 25.7961 27.9868 25.7961 27.2219ZM34.8594 24.6356C34.3869 25.0874 34.0468 25.66 33.8761 26.2915C33.0576 26.2613 32.2382 26.2613 31.4197 26.2915C31.236 25.6089 30.8551 25.0066 30.3427 24.5492L32.5898 19.9987L34.8594 24.6356ZM25.18 13.4058H39.9934L36.4946 23.7405C36.3441 23.7766 36.1961 23.8225 36.0515 23.8779L32.5953 16.8166L29.1292 23.8358C28.9781 23.7838 28.8237 23.7421 28.667 23.711L25.18 13.4058ZM39.4994 27.222C39.4994 27.44 39.4669 27.6505 39.407 27.8493C39.2651 28.3174 38.9703 28.7242 38.57 29.0044C38.2061 29.2602 37.7723 29.3972 37.3278 29.3968C36.3252 29.3968 35.4794 28.7125 35.2307 27.7858C35.1813 27.6019 35.1563 27.4124 35.1563 27.222C35.1563 26.9247 35.2162 26.6412 35.3245 26.3829C35.3804 26.2507 35.4492 26.1244 35.5299 26.0059C35.9207 25.4281 36.5801 25.0472 37.3278 25.0472C37.3964 25.0472 37.464 25.0507 37.531 25.057C38.6335 25.1599 39.4994 26.0913 39.4994 27.222ZM40.9031 27.222C40.9031 25.4739 39.6455 24.0154 37.9891 23.7039L41.9512 12H23.2224L27.1907 23.7275C25.5919 24.0839 24.3926 25.5148 24.3926 27.2219C24.3926 28.5037 25.069 29.6296 26.0826 30.2623C25.5951 30.9899 25.0169 31.6745 24.3543 32.3006C23.3034 33.2934 22.1328 34.0464 20.8707 34.5418C19.5994 33.7421 19.0621 32.2338 19.6201 30.92L19.6639 30.817L19.7459 30.6238C21.1422 30.136 22.147 28.8051 22.147 27.2426C22.147 25.2682 20.5432 23.662 18.572 23.662C16.6006 23.662 14.9968 25.2682 14.9968 27.2426C14.9968 28.2391 15.4059 29.1415 16.0641 29.7913C15.9414 30.0518 15.8167 30.3114 15.6903 30.5701C15.0884 31.808 14.4063 33.2111 14.1483 34.7693C13.636 37.8639 14.4624 40.3376 16.4755 41.7348C17.697 42.5827 18.9375 42.9161 20.1858 42.9161C22.5363 42.9161 24.9141 41.7334 27.2397 40.5764C28.9146 39.7434 30.6465 38.8818 32.3573 38.4592C32.9938 38.302 33.6488 38.2074 34.3422 38.1073C35.7174 37.9086 37.1393 37.7032 38.3988 36.9726C39.8589 36.1257 40.8582 34.7049 41.1409 33.075C41.3834 31.6756 41.0915 30.274 40.3795 29.0853C40.7226 28.5245 40.9038 27.8795 40.9031 27.2219" fill="white"/>
</g>
<defs>
<clipPath id="clip0_109_333">
<rect width="28" height="31" fill="white" transform="translate(14 12)"/>
</clipPath>
</defs>
</svg>
