<svg width="56" height="56" viewBox="0 0 56 56" fill="none" xmlns="http://www.w3.org/2000/svg">
<g clip-path="url(#clip0_109_289)">
<path d="M44 43H13V12H44V43Z" fill="#D00000"/>
<path d="M21.2586 36.0492C21.2586 36.0735 21.2828 36.0977 21.2828 36.1219L21.8156 36.6547C21.8399 36.6789 21.8641 36.6789 21.8883 36.6789H23.7047C23.7289 36.6789 23.7531 36.6547 23.7774 36.6547L24.3102 36.1219C24.3344 36.0977 24.3344 36.0735 24.3344 36.0492V30.2852C24.3344 30.261 24.3586 30.2367 24.3586 30.2125L26.6594 28.0086C26.6836 27.9844 26.7078 27.9844 26.7078 28.0086L32.5445 36.6305C32.5688 36.6547 32.593 36.6547 32.6172 36.6547H35.1844C35.2086 36.6547 35.2328 36.6305 35.257 36.6063L35.7172 35.7102V35.6375L28.9117 25.7805C28.8875 25.7563 28.9117 25.732 28.9117 25.7078L35.1844 19.4594C35.2086 19.4352 35.2086 19.4109 35.2086 19.3867V19.2656C35.2086 19.2414 35.2086 19.2172 35.1844 19.193L34.8211 18.3695C34.8211 18.3453 34.7969 18.3211 34.7727 18.3211H32.2297C32.2055 18.3211 32.1813 18.3453 32.157 18.3453L24.3828 26.168C24.3586 26.1922 24.3586 26.168 24.3586 26.1438V18.9992C24.3586 18.975 24.3344 18.9508 24.3344 18.9266L23.8016 18.3695C23.7774 18.3453 23.7531 18.3453 23.7289 18.3453H21.8883C21.8641 18.3453 21.8399 18.3695 21.8156 18.3695L21.2828 18.9508C21.2586 18.975 21.2586 18.9992 21.2586 19.0234V36.0492Z" fill="white"/>
</g>
<defs>
<clipPath id="clip0_109_289">
<rect width="31" height="31" fill="white" transform="translate(13 12)"/>
</clipPath>
</defs>
</svg>
