<svg width="56" height="56" viewBox="0 0 56 56" fill="none" xmlns="http://www.w3.org/2000/svg">
<rect width="56" height="56" rx="16" fill="#1E2235"/>
<path d="M50.0151 13.0007C49.3232 13.0252 49.5238 13.3376 48.0276 13.7084C46.5182 14.0811 44.6901 13.8533 43.0664 14.5385C38.8158 16.3266 38.1277 23.2421 33.0634 25.9167C29.7447 27.799 26.3585 28.23 23.3323 29.1825C20.9042 30.1612 19.393 30.8087 17.6117 32.3503C16.2299 33.5455 15.8924 34.7069 14.4486 36.2089C12.9824 38.2079 7.42873 36.431 6 38.9382C6.75374 39.4276 7.18873 39.5631 8.51247 39.3899C8.23872 39.9095 6.49874 40.5946 6.81374 41.3626C6.81374 41.3626 11.0231 42.1324 14.5705 39.9829C16.2242 39.3071 17.7767 37.8766 20.3454 37.534C23.6773 37.0898 27.4291 38.2361 31.4547 38.558C30.6222 40.2087 29.7634 41.1837 28.8466 42.5465C28.5616 42.8533 29.0903 43.1243 30.0653 42.9399C31.8222 42.5032 33.0934 42.0308 34.3571 41.1536C36.0034 40.013 36.7121 38.9702 38.1015 37.3157C39.3089 39.2582 43.5651 39.6873 44.4389 38.0065C42.8133 37.3157 42.4664 33.7206 43.0233 32.1696C43.6795 30.6901 44.1539 28.6008 44.6845 26.6583C45.1645 24.9078 45.4589 22.2369 46.0307 20.8704C46.7151 19.1707 48.0426 18.6399 49.0401 17.7383C50.0376 16.8367 51.0275 16.0857 50.9994 14.0227C50.9882 13.3527 50.6432 12.9819 50.0151 13.0007ZM48.9407 13.8383C49.1094 14.4161 49.3738 14.6815 50.5175 14.7869C50.3507 16.2438 49.3813 17.0381 48.2994 17.8023C47.3451 18.4724 46.3007 19.1199 45.6295 20.1702C44.9414 21.2431 43.8464 24.3676 42.7795 27.9985C41.857 31.1381 40.7827 33.282 38.5121 35.1643C38.2308 34.4867 38.8308 34.0952 38.5683 33.4759C38.2402 34.4095 37.5221 35.7685 37.089 36.6004C35.664 39.3372 33.3034 41.5508 29.7747 42.1757C31.449 39.8982 33.1253 37.3891 33.3296 33.4665C32.5797 33.6302 32.5197 35.6574 31.3084 36.4028C30.5303 36.4875 29.4428 36.3087 28.3591 36.1769C25.1229 35.7948 21.8623 35.6461 18.8211 36.6287C16.7492 37.2931 14.4036 39.3523 12.6487 40.1165C10.5862 41.0162 9.87932 41.0859 7.26936 41.0068C6.94311 40.5664 9.14808 39.9979 9.02434 39.0361C8.01935 38.9269 7.43436 39.1697 6.56062 38.7726C6.66284 38.5912 6.80605 38.4365 6.97874 38.3208C8.57997 37.2103 13.1249 38.0573 14.3418 36.8583C15.0936 36.1205 15.5849 35.345 16.0949 34.5921C16.5917 33.8618 17.1036 33.1521 17.8817 32.5122C18.1705 32.2769 18.6205 31.8703 18.9523 31.6407C20.2817 30.7297 21.7835 30.0765 23.4016 29.5081C25.6029 28.7307 27.8285 28.4691 30.1759 27.5694C31.6272 27.0122 33.0034 26.4852 34.2878 25.5215C34.5915 25.2937 35.0509 24.9079 35.319 24.6462C39.4814 20.5203 39.7458 14.9018 45.472 14.3126C46.1657 14.2411 46.732 14.2637 47.2495 14.2486C47.8438 14.2298 48.3688 14.1602 48.9407 13.8383ZM48.6594 14.2091C48.6276 14.2091 48.5676 14.2373 48.4851 14.3145C47.9882 14.8265 47.0038 15.9784 46.6476 17.0513C46.5538 17.3431 46.7376 17.2584 46.8013 17.0701C47.1557 15.9709 48.2788 14.7625 48.6219 14.3973C48.7063 14.2994 48.7176 14.211 48.6594 14.2091ZM48.8094 14.4594C48.7776 14.4632 48.7232 14.5008 48.6519 14.5893C48.2319 15.1653 47.4201 16.0386 47.2157 17.1492C47.1651 17.4503 47.3357 17.3431 47.3695 17.1473C47.5682 16.0085 48.5094 15.058 48.8001 14.6495C48.8694 14.5404 48.8657 14.4519 48.8094 14.4594ZM48.9932 14.6853C48.9613 14.6928 48.9107 14.7342 48.8488 14.8284C48.4757 15.4401 47.9863 16.1441 47.8757 17.2659C47.8513 17.5708 48.0126 17.4485 48.0313 17.2508C48.1288 16.0989 48.7419 15.3083 48.9969 14.8754C49.0569 14.7625 49.0494 14.6721 48.9932 14.6853ZM49.1938 14.8566C49.1601 14.866 49.1151 14.9131 49.0607 15.0109C48.7438 15.6509 48.4457 16.1403 48.4344 17.2696C48.4382 17.5765 48.5844 17.439 48.5863 17.2414C48.5863 16.0857 48.9988 15.5003 49.2144 15.0467C49.2632 14.9281 49.2482 14.8378 49.1938 14.8566ZM45.3239 15.41C44.3376 15.4344 43.7545 15.8655 43.5651 16.6899C44.3751 17.3958 46.0739 16.8292 45.772 15.425C45.6224 15.4119 45.474 15.4068 45.3239 15.41Z" fill="#F8F8F8"/>
</svg>
