<svg width="56" height="56" viewBox="0 0 56 56" fill="none" xmlns="http://www.w3.org/2000/svg">
<path d="M32.1412 7C31.8447 7 31.5694 7.06383 31.3152 7.14889C31.8553 7.51018 32.1517 7.98852 32.2999 8.53069C32.3106 8.60514 32.3317 8.65836 32.3423 8.73264C32.3529 8.79647 32.3635 8.8603 32.3635 8.92398C32.4059 9.85943 32.12 9.97633 31.9187 10.5291C31.6117 11.2414 31.6964 12.0067 32.067 12.6232C32.0987 12.6976 32.1412 12.7827 32.194 12.8571C31.7917 10.1677 34.0259 9.76376 34.4388 8.92398C34.4705 8.19063 33.867 7.70151 33.3905 7.36145C32.9352 7.0849 32.5223 7 32.1412 7ZM35.5081 7.60584C35.4658 7.8504 35.4976 7.78657 35.487 7.91423C35.4764 7.99929 35.4764 8.10557 35.4658 8.19063C35.4447 8.27552 35.4236 8.36058 35.3917 8.44563C35.3705 8.53085 35.3388 8.61575 35.3071 8.7008C35.2647 8.78586 35.233 8.8603 35.1905 8.9452C35.1588 8.98781 35.1377 9.03042 35.1058 9.07286L35.0424 9.16853C34.9895 9.24298 34.9365 9.31742 34.8835 9.38109C34.8199 9.44492 34.7671 9.51937 34.6929 9.57243V9.58304C34.6293 9.63626 34.5659 9.70009 34.4918 9.75315C34.2695 9.92327 34.0153 10.0508 33.7823 10.2103C33.7083 10.2633 33.6341 10.3059 33.5706 10.3698C33.4964 10.4228 33.4328 10.4759 33.3694 10.5399C33.2952 10.6036 33.2424 10.6674 33.1788 10.7418C33.126 10.8055 33.0624 10.8801 33.0199 10.9544C32.9671 11.0288 32.9142 11.1031 32.8718 11.1776C32.8294 11.2628 32.7976 11.3371 32.7552 11.422C32.7235 11.5072 32.6918 11.5816 32.6706 11.6665C32.6388 11.7622 32.6176 11.8472 32.5965 11.9323C32.5859 11.9749 32.5859 12.028 32.5753 12.0706C32.5646 12.113 32.5646 12.1556 32.5542 12.1981C32.5542 12.2831 32.5435 12.3788 32.5435 12.4639C32.5435 12.5277 32.5435 12.5914 32.5542 12.6552C32.5542 12.7403 32.5648 12.8253 32.5859 12.921C32.5965 13.006 32.6176 13.0909 32.6388 13.176C32.6706 13.2612 32.6918 13.3461 32.7236 13.4312C32.7446 13.4842 32.7765 13.5374 32.7976 13.58L30.3625 12.634C29.9557 12.5177 29.5461 12.4113 29.1342 12.315L28.4672 12.1556C27.8318 12.028 27.1859 11.9323 26.5402 11.8686C26.519 11.8686 26.5083 11.8579 26.4873 11.8579C25.8575 11.7942 25.2249 11.7622 24.5919 11.7622C24.126 11.7622 23.6601 11.7834 23.2049 11.8152C22.5588 11.8579 21.9131 11.9429 21.267 12.0492C21.1083 12.0706 20.9494 12.1024 20.7907 12.1344C20.4624 12.1981 20.1448 12.2725 19.8378 12.347L19.3612 12.4745C19.2025 12.5383 19.0541 12.6127 18.906 12.6764L18.5565 12.8359C18.5354 12.8465 18.5141 12.8465 18.5037 12.8571C18.3977 12.9102 18.3024 12.9528 18.2071 13.0059C18.1816 13.0146 18.1568 13.0253 18.1329 13.0379C18.0165 13.0909 17.9001 13.1548 17.8048 13.208C17.7306 13.2398 17.6565 13.2823 17.593 13.3141C17.5623 13.3336 17.5305 13.3514 17.4977 13.3673C17.4025 13.4204 17.3072 13.4736 17.2223 13.5268C17.1347 13.5751 17.0499 13.6284 16.9683 13.6863C16.8941 13.7394 16.8201 13.782 16.7565 13.835C16.746 13.8457 16.7354 13.8457 16.7247 13.8563C16.6613 13.8989 16.5871 13.9519 16.5235 14.0052L16.5024 14.0264L16.3437 14.1539C16.3224 14.1647 16.3012 14.1859 16.2801 14.1965C16.2272 14.2389 16.1742 14.2922 16.1212 14.3348C16.1106 14.3558 16.0895 14.3666 16.0789 14.3772C16.0153 14.4411 15.9518 14.4941 15.8883 14.5579C15.8776 14.5579 15.8776 14.5686 15.8672 14.5792C15.8036 14.6322 15.74 14.6961 15.6766 14.7599C15.6659 14.7705 15.6659 14.7811 15.6553 14.7811C15.6025 14.8342 15.5496 14.8874 15.4966 14.9512C15.4755 14.9725 15.4437 14.9937 15.4224 15.0149C15.3696 15.0787 15.306 15.1426 15.2424 15.2062C15.2319 15.2276 15.2107 15.2382 15.2 15.2595C15.1154 15.3445 15.0413 15.4296 14.9565 15.5146L14.9248 15.5465C14.7554 15.7272 14.5754 15.9079 14.3848 16.0674C14.197 16.2356 13.999 16.3918 13.7917 16.5351C13.5864 16.6797 13.3745 16.8145 13.1566 16.939C12.9404 17.058 12.7177 17.1645 12.4895 17.2579C12.2643 17.354 12.0345 17.4391 11.8011 17.513C11.3566 17.6087 10.9011 17.7894 10.5095 17.8213C10.4246 17.8213 10.3295 17.8425 10.2448 17.8531C10.1562 17.8733 10.068 17.8945 9.98001 17.9169L9.72584 18.0126C9.64112 18.0444 9.55656 18.0871 9.47184 18.1295C9.39768 18.1826 9.31296 18.2252 9.23881 18.2784C9.16466 18.3315 9.09066 18.3953 9.02708 18.4591C8.95293 18.5122 8.87878 18.5866 8.81536 18.6505C8.75177 18.7249 8.68819 18.7887 8.63534 18.863C8.58249 18.9481 8.51891 19.0225 8.47646 19.1074C8.42361 19.182 8.3706 19.2669 8.32816 19.352C8.28588 19.4476 8.2436 19.5327 8.21173 19.6285C8.17833 19.72 8.14656 19.8121 8.11643 19.9048C8.09529 19.9898 8.07415 20.0749 8.06358 20.1599C8.06358 20.1705 8.05285 20.1811 8.05285 20.1918C8.03171 20.2874 8.03171 20.4151 8.02114 20.4788C8.01057 20.5532 8 20.617 8 20.6913C8 20.7339 8 20.787 8.01057 20.8296C8.02114 20.904 8.03171 20.9679 8.05301 21.0315C8.07415 21.0954 8.09529 21.159 8.12716 21.2229V21.2335C8.15888 21.2973 8.20116 21.3612 8.2436 21.4248C8.28588 21.4887 8.32832 21.5525 8.38133 21.6162C8.43418 21.6692 8.49761 21.7332 8.56119 21.7863C8.62477 21.8501 8.68835 21.9032 8.76234 21.9564C9.01651 22.1796 9.08009 22.254 9.40825 22.4241C9.46111 22.456 9.51412 22.4772 9.5777 22.5092C9.58827 22.5092 9.59884 22.5198 9.60941 22.5198C9.60941 22.541 9.60941 22.5516 9.62014 22.5728C9.63071 22.6581 9.65185 22.743 9.67299 22.828C9.69413 22.9237 9.72584 23.0087 9.75772 23.0832C9.78943 23.147 9.81057 23.2107 9.84244 23.2745C9.85301 23.2957 9.86358 23.3171 9.87415 23.3276C9.91659 23.4128 9.95903 23.4871 10.0013 23.5615L10.16 23.7847C10.2129 23.8485 10.2765 23.923 10.34 23.9868C10.4036 24.0505 10.4672 24.1037 10.5412 24.1674C10.5412 24.1674 10.5519 24.1781 10.5623 24.1781C10.6259 24.2312 10.6895 24.2843 10.7529 24.3269C10.8271 24.3799 10.9012 24.4225 10.986 24.4651C11.0601 24.5076 11.1448 24.5502 11.2294 24.582C11.293 24.6139 11.3671 24.6351 11.4413 24.6565C11.4518 24.6671 11.4624 24.6671 11.4836 24.6777C11.526 24.6883 11.5789 24.6989 11.6213 24.7095C11.5894 25.2836 11.5789 25.8257 11.6636 26.0171C11.7589 26.2296 12.2248 25.5813 12.6907 24.8372C12.6272 25.5706 12.585 26.4316 12.6907 26.6867C12.8071 26.9525 13.4424 26.1233 13.993 25.2091C21.5002 23.4659 28.3507 28.6745 29.0708 36.0305C28.9331 34.8825 27.525 34.2447 26.8791 34.4042C26.5613 35.1908 26.0214 36.2007 25.1532 36.8277C25.2272 36.1262 25.1955 35.4033 25.0472 34.7018C24.8143 35.6797 24.359 36.5939 23.7342 37.3805C22.7285 37.455 21.7227 36.966 21.193 36.2325C21.1508 36.2007 21.1402 36.1368 21.1085 36.0942C21.0766 36.0199 21.0449 35.9455 21.0236 35.871C20.9928 35.7998 20.9714 35.7247 20.9602 35.6479C20.9496 35.5734 20.9496 35.499 20.9496 35.4139V35.2546C20.9602 35.1801 20.9813 35.1057 21.0024 35.0313C21.0236 34.957 21.0449 34.8825 21.0766 34.8081C21.119 34.7336 21.1508 34.6592 21.2036 34.5849C21.3836 34.0746 21.3836 33.6601 21.0555 33.4155C20.9919 33.3739 20.9245 33.3383 20.8543 33.3094C20.8119 33.2986 20.759 33.2772 20.7166 33.2668C20.6849 33.256 20.6637 33.2454 20.6318 33.2348C20.5579 33.2136 20.4837 33.1923 20.4096 33.1817C20.3373 33.1607 20.2625 33.1499 20.1873 33.1497C20.1131 33.1391 20.0284 33.1285 19.9542 33.1285C19.9014 33.1285 19.8485 33.1391 19.7954 33.1391C19.7108 33.1391 19.6366 33.1499 19.5625 33.1711C19.4883 33.1817 19.4142 33.1923 19.3402 33.2136C19.266 33.2348 19.1919 33.2562 19.1177 33.288C19.0437 33.3198 18.98 33.3518 18.906 33.3837C18.8424 33.4155 18.779 33.4581 18.7048 33.49C16.2378 35.1059 17.7095 38.89 19.393 39.9849C18.7577 40.1018 18.1118 40.2401 17.9319 40.3782L17.9108 40.3994C18.366 40.676 18.8424 40.9098 19.3402 41.1117C20.0178 41.3349 20.7379 41.5369 21.0555 41.6219V41.6325C21.9327 41.8131 22.8298 41.8774 23.7237 41.8239C28.4143 41.4942 32.2579 37.9121 32.9567 33.1923C32.9778 33.288 32.9991 33.3731 33.0203 33.4687C33.052 33.6601 33.0944 33.862 33.1156 34.064V34.0747C33.1367 34.1704 33.1473 34.2661 33.158 34.3511V34.3936C33.1686 34.4892 33.1791 34.5849 33.1791 34.67C33.1897 34.7869 33.2003 34.9038 33.2003 35.0208V35.1908C33.2003 35.244 33.2108 35.3078 33.2108 35.3609C33.2108 35.4247 33.2003 35.4885 33.2003 35.5522V35.7011C33.2003 35.7755 33.1897 35.8394 33.1897 35.9137C33.1897 35.9563 33.1897 35.9987 33.179 36.0519C33.179 36.1262 33.1684 36.2007 33.1684 36.2857C33.1578 36.3176 33.1578 36.3495 33.1578 36.3814C33.1473 36.4664 33.1367 36.5409 33.126 36.6258C33.126 36.6578 33.126 36.6896 33.1154 36.7216C33.1048 36.8277 33.0837 36.9236 33.0731 37.0298V37.0511C33.052 37.1467 33.0307 37.2532 33.0095 37.3488V37.3807L32.9459 37.6677C32.9459 37.6783 32.9354 37.6995 32.9354 37.7101C32.9142 37.8058 32.8931 37.9015 32.8612 37.9973V38.0291C32.8295 38.1354 32.7978 38.2311 32.7767 38.3267C32.7659 38.3374 32.7659 38.348 32.7659 38.348L32.6706 38.6668C32.6284 38.7732 32.5966 38.8689 32.5542 38.9752C32.5119 39.0813 32.48 39.1878 32.4378 39.2834C32.3953 39.3897 32.3529 39.4854 32.3108 39.5917H32.3C32.2578 39.6873 32.2153 39.7936 32.1623 39.8893C32.1537 39.9149 32.1431 39.9398 32.1306 39.9637C32.12 39.9745 32.12 39.9849 32.1094 39.9957C31.4213 41.3881 30.4047 42.6106 29.1342 43.5673C29.0493 43.6203 28.9648 43.6843 28.8801 43.748C28.8589 43.7692 28.8272 43.78 28.8059 43.8011C28.7318 43.8543 28.6578 43.9075 28.573 43.9606L28.6047 44.0244H28.6153L29.0601 43.9606H29.0706C29.3461 43.9181 29.6213 43.8649 29.8966 43.8118C29.9707 43.8012 30.0554 43.78 30.1294 43.7588C30.1824 43.748 30.2247 43.7374 30.2777 43.7268C30.3519 43.7162 30.426 43.6949 30.5 43.6842C30.5636 43.6629 30.6272 43.6523 30.6906 43.6311C31.7496 43.3759 32.7767 43.0251 33.7613 42.6106C32.0777 44.9172 29.8224 46.7775 27.1859 48C28.4036 47.9149 29.6213 47.713 30.7966 47.3729C35.0637 46.1079 38.6531 43.2272 40.8026 39.3473C40.3662 41.8084 39.3936 44.1424 37.9542 46.1823C38.9803 45.5027 39.9285 44.7113 40.7813 43.8224C43.1532 41.3351 44.7096 38.1779 45.2391 34.7869C45.6002 36.4692 45.7038 38.197 45.5461 39.9107C53.1908 29.2061 46.1814 18.1084 43.2485 15.1852C43.2377 15.164 43.2273 15.1533 43.2273 15.1321C43.2166 15.1427 43.2166 15.1427 43.2166 15.1533C43.2166 15.1426 43.2166 15.1426 43.206 15.1321C43.206 15.2596 43.1955 15.3871 43.1849 15.5148C43.1532 15.7592 43.1213 15.9931 43.079 16.2271C43.0262 16.4609 42.9626 16.6946 42.899 16.9286C42.8236 17.1587 42.7388 17.3856 42.6448 17.6087C42.5475 17.829 42.4416 18.0454 42.3273 18.2573C42.2108 18.4593 42.0838 18.6718 41.9461 18.8632C41.8099 19.0609 41.6651 19.2524 41.5121 19.4372C41.353 19.6285 41.1837 19.7986 41.0143 19.9687C40.9146 20.0603 40.8122 20.1489 40.7073 20.2344C40.6224 20.3088 40.5484 20.3726 40.4637 20.4471C40.2731 20.5958 40.0825 20.7341 39.8708 20.8616C39.6696 20.9891 39.4577 21.1168 39.2462 21.223C39.0236 21.3293 38.8013 21.425 38.579 21.5207C38.3533 21.6062 38.1236 21.6807 37.8908 21.7438C37.6566 21.8071 37.4199 21.8603 37.1813 21.9033C36.9378 21.9459 36.6944 21.9672 36.4614 21.9884C36.2919 21.999 36.1225 22.0096 35.953 22.0096C35.7096 22.0096 35.466 21.9884 35.2331 21.9672C34.9895 21.9458 34.7459 21.9139 34.5131 21.8607C34.2696 21.8183 34.0366 21.7546 33.8036 21.6802H33.793C34.026 21.6588 34.2591 21.6376 34.4919 21.5949C34.7308 21.5531 34.9676 21.4999 35.2014 21.4356C35.4342 21.3724 35.6638 21.298 35.8895 21.2124C36.1225 21.1272 36.3448 21.0211 36.5567 20.9147C36.779 20.8085 36.9801 20.6915 37.1918 20.564C37.393 20.4257 37.5943 20.2874 37.7849 20.1387C37.9746 19.9906 38.1549 19.8309 38.3248 19.6604C38.5048 19.5009 38.6637 19.3203 38.8226 19.1394C38.9773 18.9533 39.1256 18.7618 39.2672 18.5654C39.2883 18.5336 39.3096 18.4911 39.3307 18.4593C39.4366 18.2892 39.5425 18.1191 39.6378 17.9489C39.7542 17.7382 39.8603 17.5218 39.9555 17.3005C40.0511 17.0781 40.1359 16.8511 40.2095 16.6204C40.2837 16.3969 40.3367 16.1631 40.3895 15.9293C40.432 15.6849 40.4744 15.451 40.4954 15.217C40.5165 14.9726 40.5378 14.7282 40.5378 14.4943C40.5378 14.3242 40.5273 14.154 40.5167 13.9839C40.4956 13.7395 40.4638 13.5056 40.4318 13.2717C40.3902 13.0319 40.3373 12.7943 40.2733 12.5595C40.1989 12.3364 40.125 12.1024 40.0402 11.8792C39.9553 11.6561 39.8496 11.4327 39.7438 11.2202C39.6272 11.0076 39.5107 10.7949 39.3837 10.5931C39.2486 10.3939 39.1073 10.1988 38.9601 10.0083C38.8007 9.82496 38.6384 9.64422 38.4731 9.46615C38.3839 9.37497 38.2921 9.28639 38.1978 9.20053C37.7234 8.83065 37.2323 8.48298 36.726 8.15863C36.6576 8.11903 36.5869 8.0836 36.5142 8.05251C36.1649 7.82918 35.8368 7.71229 35.5084 7.60601L35.5081 7.60584Z" fill="#E0234E"/>
</svg>
