<svg width="56" height="56" viewBox="0 0 56 56" fill="none" xmlns="http://www.w3.org/2000/svg">
<g clip-path="url(#clip0_109_404)">
<path d="M42.5816 16.7383C36.3624 8.68472 24.7911 7.19797 16.7372 13.4184C8.68443 19.6388 7.19917 31.2101 13.4196 39.2628C19.6412 47.3153 31.2134 48.7997 39.2649 42.578C47.3144 36.3576 48.8 24.7899 42.5816 16.7383Z" fill="#F37036"/>
<path d="M36.0388 16.1737C35.4045 16.2244 34.8031 16.4768 34.3225 16.8939C33.7601 17.3822 33.4011 18.0637 33.3165 18.8037C33.2318 19.5438 33.4277 20.2886 33.8654 20.8914C34.3024 21.4943 34.9496 21.9116 35.6793 22.0608C36.4089 22.21 37.168 22.0803 37.8067 21.6974H37.8073L37.8536 21.7437C38.0639 21.6231 38.2597 21.4786 38.4369 21.3132C38.9837 20.7349 39.2844 19.9668 39.2758 19.171C39.2671 18.3751 38.9498 17.6138 38.3906 17.0474V17.0468L35.7651 19.6561L35.7187 19.61L38.3443 16.9996C38.0404 16.7066 37.6777 16.4815 37.2802 16.3392C36.8828 16.1969 36.4596 16.1407 36.0388 16.1743V16.1737ZM32.582 20.4449C31.3232 20.4428 29.268 21.8696 24.2496 26.8879L24.2745 26.9135C24.2472 26.904 24.2196 26.9031 24.2196 26.9031L22.3303 28.7758C22.2818 28.8219 22.2496 28.8826 22.2388 28.9487C22.228 29.0148 22.2391 29.0826 22.2703 29.1418C22.3016 29.201 22.3513 29.2484 22.412 29.2768C22.4726 29.3051 22.5409 29.3129 22.6064 29.2988L25.8465 28.6077C25.8608 28.5943 25.8703 28.5766 25.8738 28.5573L25.9456 28.6315L24.8412 29.7269H24.7878L18.231 36.3354L20.3347 38.3613C20.3935 38.4143 20.4677 38.4472 20.5465 38.4551C20.6253 38.4631 20.7046 38.4457 20.7729 38.4055C20.8417 38.3656 20.8969 38.3058 20.931 38.2339C20.9652 38.162 20.9768 38.0815 20.9644 38.0029L20.6571 36.667C20.6379 36.6401 20.6276 36.608 20.6276 36.575C20.6276 36.542 20.6379 36.5098 20.6571 36.4829C23.5291 35.1138 26.1999 33.3575 28.5949 31.263L27.2486 29.9161L27.2741 29.9119L26.4755 29.1136L26.5266 29.0619L26.5806 29.1172L26.5527 29.1442L28.6715 31.3093V31.3084C32.7328 27.4627 35.6154 24.3713 34.8658 22.2908C34.8317 22.042 34.7161 21.8115 34.5372 21.6353V21.6365C34.4918 21.6026 34.4438 21.5723 34.3938 21.5457C34.3692 21.5195 34.3475 21.4928 34.3214 21.4673L34.3018 21.4869C34.2468 21.4533 34.1889 21.4245 34.129 21.4008L34.2148 21.3141C33.6816 20.8391 33.241 20.446 32.582 20.4443V20.4449ZM18.1853 36.3749L16.6502 37.9103V37.9115C16.5951 37.9456 16.5523 37.9963 16.5279 38.0564C16.5035 38.1164 16.4988 38.1826 16.5145 38.2455C16.5296 38.3083 16.5642 38.3648 16.6133 38.4068C16.6624 38.4489 16.7235 38.4744 16.7879 38.4797L20.5499 38.7395L18.1853 36.3749Z" fill="white"/>
<path d="M36.2977 15.9202C35.436 15.9191 34.6086 16.2572 33.9942 16.8613C33.557 17.3087 33.2577 17.8723 33.1319 18.485C33.0061 19.0978 33.0592 19.7337 33.2847 20.3172C31.8772 19.7145 29.973 20.7655 24.0501 26.6872C24.0459 26.6963 24.0423 26.7056 24.0391 26.7151C24.027 26.7206 24.0152 26.7268 24.0038 26.7335L22.1308 28.6229C22.041 28.711 21.982 28.8257 21.9626 28.95C21.9432 29.0743 21.9644 29.2015 22.023 29.3128C22.0754 29.4009 22.1495 29.474 22.2382 29.5251C22.3269 29.5763 22.4274 29.6038 22.5298 29.6049L22.6227 29.5447L25.1236 29.0112L23.9272 30.2186C23.9202 30.2344 23.9148 30.2509 23.9111 30.2678L18.0479 36.1457C18.0245 36.1653 18.0051 36.1893 17.9909 36.2163L16.481 37.7274C16.4057 37.8069 16.3543 37.9058 16.3326 38.0131C16.3108 38.1203 16.3197 38.2315 16.3581 38.3339C16.3974 38.4358 16.4642 38.5247 16.5509 38.591C16.6377 38.6573 16.7411 38.6983 16.8497 38.7095L20.5956 38.9707C20.6595 38.9483 20.714 38.9049 20.75 38.8475C20.7822 38.8028 20.7996 38.749 20.7996 38.6939C20.7996 38.6388 20.7822 38.585 20.75 38.5403L20.7423 38.5328C20.8231 38.4904 20.8944 38.4318 20.9516 38.3607C21.0118 38.2826 21.0538 38.1921 21.0746 38.0958C21.0955 37.9994 21.0946 37.8997 21.0721 37.8037L20.78 36.5607C23.5826 35.2213 26.2086 33.54 28.5979 31.5551C28.6211 31.5683 28.6458 31.5785 28.6715 31.5857C28.7469 31.58 28.8176 31.5477 28.871 31.4942C32.8937 27.6853 35.2583 25.0752 35.2583 23.003C35.267 22.7156 35.2237 22.4289 35.1303 22.1569C35.4929 22.3072 35.8796 22.3907 36.2718 22.4033L36.2674 22.4045C36.8076 22.388 37.3357 22.2403 37.8061 21.974C37.8065 21.9741 37.8069 21.9742 37.8073 21.9743C37.8682 21.9926 37.9337 21.9867 37.9904 21.958C38.2174 21.8244 38.4243 21.6592 38.605 21.4676C38.9111 21.1672 39.1543 20.8088 39.3204 20.4134C39.4865 20.0179 39.5721 19.5933 39.5722 19.1644C39.5721 18.7355 39.4866 18.311 39.3205 17.9155C39.1545 17.5201 38.9114 17.1617 38.6053 16.8613C38.5943 16.8513 38.5826 16.8423 38.5702 16.8342C37.9591 16.2475 37.1446 15.92 36.2974 15.9205L36.2977 15.9202ZM36.2718 16.4462C36.8718 16.4498 37.4541 16.6493 37.9302 17.0145L35.535 19.4242C35.5268 19.4333 35.5192 19.443 35.5124 19.4533C35.4693 19.497 35.4439 19.5552 35.4415 19.6166C35.4415 19.6536 35.4498 19.6902 35.4659 19.7236C35.482 19.757 35.5054 19.7864 35.5344 19.8095H35.535L37.3459 21.6205C36.8502 21.8366 36.3008 21.8981 35.7696 21.7967C35.2384 21.6954 34.7502 21.436 34.3689 21.0525C33.6011 20.2807 33.3785 19.1217 33.7891 18.1162C34.1996 17.1097 35.1784 16.4522 36.2718 16.4462ZM38.3856 17.4651C38.7772 17.9389 38.9907 18.5349 38.9891 19.1496C38.988 19.8697 38.701 20.56 38.1911 21.0686C38.0889 21.1647 37.98 21.2535 37.8652 21.3343L36.4036 19.8953L36.1178 19.6094L36.1964 19.5308L38.3853 17.4645L38.3856 17.4651ZM38.2769 18.7099C38.2232 18.6929 38.1651 18.6962 38.1136 18.7191C38.0627 18.7455 38.0243 18.791 38.0068 18.8456C37.9982 18.8728 37.9951 18.9016 37.9976 18.93C38.0002 18.9585 38.0083 18.9862 38.0216 19.0115C38.0744 19.1224 38.0952 19.2459 38.0817 19.3679C38.0682 19.49 38.021 19.6059 37.9453 19.7027C37.926 19.7213 37.9108 19.7439 37.9008 19.7689C37.8908 19.7939 37.8863 19.8207 37.8874 19.8475C37.8886 19.9022 37.9082 19.9544 37.9453 19.9936C37.9849 20.0087 38.0287 20.0087 38.0682 19.9936C38.1039 20.0025 38.1414 20.0015 38.1765 19.9907C38.2117 19.9798 38.2432 19.9596 38.2677 19.9321C38.394 19.7772 38.474 19.5898 38.4984 19.3914C38.5229 19.193 38.4907 18.9918 38.4058 18.8108V18.812C38.3768 18.7633 38.331 18.727 38.2769 18.7099ZM32.5541 20.7058C32.9124 20.7177 33.2571 20.8454 33.5367 21.0698C33.2355 21.1131 32.9563 21.2527 32.7408 21.4676L25.97 28.2081L24.6412 26.8793C28.1526 23.3845 30.2996 21.559 31.6343 20.9608C31.9093 20.7874 32.2291 20.6989 32.5541 20.7058ZM33.7312 21.5845C33.9585 21.5846 34.1766 21.6747 34.3377 21.8351C34.4234 21.9155 34.4911 22.0132 34.536 22.1218C34.581 22.2304 34.6024 22.3473 34.5986 22.4648C34.5948 22.5818 34.5668 22.6968 34.5165 22.8025C34.4662 22.9083 34.3946 23.0025 34.3062 23.0793L27.107 29.3452L26.3301 28.5682L33.1247 21.8351C33.2858 21.6748 33.5039 21.5845 33.7312 21.5845ZM34.62 23.573C34.1183 25.5627 31.4592 28.2586 28.6864 30.8782L27.5651 29.7581L34.62 23.573ZM24.2496 27.2718L24.3309 27.3519L25.3738 28.3949L22.5149 29.0064L24.2496 27.2718ZM25.9694 29.0055L25.9706 29.0067L26.3173 29.3615C26.3188 29.3699 26.3206 29.3782 26.3227 29.3864L26.3458 29.39L26.4194 29.4654L26.6629 29.7148L25.0642 29.9107L25.9694 29.0055ZM27.1174 30.2156L28.1796 31.2772C25.8308 33.2303 23.2534 34.8908 20.5039 36.222C20.4146 36.2645 20.3429 36.3366 20.3008 36.4261C20.2588 36.5156 20.249 36.6168 20.2732 36.7127L20.5805 38.0486C20.5918 38.0643 20.5979 38.0832 20.5979 38.1025C20.5979 38.1219 20.5918 38.1407 20.5805 38.1564C20.5636 38.1716 20.5417 38.1799 20.5191 38.1799C20.4964 38.1799 20.4745 38.1716 20.4576 38.1564L18.6461 36.33L24.2297 30.6645L27.1174 30.2156ZM18.231 36.729L18.489 36.9707L19.8226 38.3042L16.8491 38.1119L18.231 36.729Z" fill="#F37036"/>
</g>
<defs>
<clipPath id="clip0_109_404">
<rect width="38" height="38" fill="white" transform="translate(9 9)"/>
</clipPath>
</defs>
</svg>
