<svg width="56" height="56" viewBox="0 0 56 56" fill="none" xmlns="http://www.w3.org/2000/svg">
<path d="M18.8599 22.375C14.355 23.5367 11.4167 25.5269 11.4167 27.799C11.4167 31.3984 18.9419 34.3333 28.2438 34.3333C29.5079 34.3333 30.3963 34.2667 31.575 34.1676" stroke="#85B6FF" stroke-width="2" stroke-linecap="round" stroke-linejoin="round"/>
<path d="M24.8049 34.1625C24.0993 33.1443 23.428 32.227 22.789 31.0875C18.0894 22.7167 16.8304 14.3971 20.0045 12.5128C21.969 11.3221 25.2098 12.945 28.5017 16.3634" stroke="#85B6FF" stroke-width="2" stroke-linecap="round" stroke-linejoin="round"/>
<path d="M18.9829 33.2861C17.7836 37.8781 18.0262 41.3426 19.9395 42.5026C22.9855 44.3476 29.1423 39.1577 33.6797 30.8791C34.2947 29.7345 34.8465 28.6087 35.3333 27.5" stroke="#85B6FF" stroke-width="2" stroke-linecap="round" stroke-linejoin="round"/>
<path d="M28.5 38.6384C31.7937 42.055 35.0207 43.6779 37.0041 42.4872C40.1645 40.6047 38.9191 32.2851 34.2144 23.9125C33.5584 22.756 32.887 21.8557 32.1985 20.8375" stroke="#85B6FF" stroke-width="2" stroke-linecap="round" stroke-linejoin="round"/>
<path d="M38.1692 32.625C42.6313 31.4514 45.5833 29.4646 45.5833 27.1994C45.5833 23.5948 38.053 20.6667 28.7648 20.6667C27.4887 20.6667 26.602 20.7162 25.425 20.8153" stroke="#85B6FF" stroke-width="2" stroke-linecap="round" stroke-linejoin="round"/>
<path d="M21.6667 27.5C22.1535 26.3725 22.7036 25.2655 23.3203 24.1209C27.8423 15.8458 34.0025 10.6422 37.0656 12.5026C38.9618 13.6625 39.2215 17.1253 38.0223 21.7156M28.9442 27.5256H28.9271C28.91 27.7477 28.7221 27.9356 28.4829 27.9356C28.3685 27.93 28.2606 27.8809 28.1812 27.7983C28.1019 27.7157 28.057 27.606 28.0558 27.4915C28.0558 27.2523 28.2438 27.0644 28.4658 27.0644H28.4488C28.6708 27.0473 28.8758 27.2523 28.8758 27.4744" stroke="#85B6FF" stroke-width="2" stroke-linecap="round" stroke-linejoin="round"/>
</svg>
