<svg width="56" height="56" viewBox="0 0 56 56" fill="none" xmlns="http://www.w3.org/2000/svg">
<path d="M39.3906 7H17.6094C12.3023 7 8 11.3023 8 16.6094V38.3906C8 43.6977 12.3023 48 17.6094 48H39.3906C44.6977 48 49 43.6977 49 38.3906V16.6094C49 11.3023 44.6977 7 39.3906 7Z" fill="#F4F2ED"/>
<mask id="mask0_109_292" style="mask-type:luminance" maskUnits="userSpaceOnUse" x="12" y="18" width="33" height="19">
<path d="M12.4844 18.8516H44.5156V36.126H12.4844V18.8516Z" fill="white"/>
</mask>
<g mask="url(#mask0_109_292)">
<path d="M37.0531 33.5305C40.9651 29.6188 41.6153 23.9269 38.5053 20.8173C35.3957 17.7077 29.704 18.3578 25.7924 22.2693C21.8806 26.1809 23.0121 33.6541 24.3404 34.9826C25.4138 36.056 33.1416 37.4421 37.0531 33.5305Z" fill="#F89939"/>
<path d="M21.0018 27.8781C18.7324 25.6089 15.4297 25.2311 13.625 27.0355C11.8207 28.84 12.1979 32.1431 14.4678 34.4122C16.7377 36.6822 21.0739 36.0257 21.8441 35.2548C22.4674 34.6325 23.272 30.1478 21.0018 27.8781Z" fill="#3499CD"/>
<path d="M28.8321 32.5718C28.4312 32.9408 28.0795 33.2131 27.7773 33.3882C27.4749 33.5637 27.1866 33.6514 26.9123 33.6514C26.5968 33.6514 26.3423 33.5291 26.1491 33.2844C25.9558 33.0393 25.8596 32.7108 25.8596 32.2976C25.8596 31.6783 25.9938 30.935 26.2622 30.0683C26.5301 29.2009 26.8564 28.4015 27.2396 27.6703L28.3634 27.2543C28.3987 27.2425 28.4254 27.2364 28.4432 27.2364C28.5284 27.2364 28.5989 27.2993 28.653 27.4244C28.7076 27.5501 28.735 27.7189 28.735 27.9311C28.735 28.5329 28.5966 29.1153 28.3191 29.6786C28.0415 30.2422 27.6083 30.8436 27.0184 31.4836C26.9947 31.7904 26.9831 32.001 26.9831 32.1162C26.9831 32.3731 27.0301 32.5762 27.1245 32.7267C27.219 32.8774 27.3442 32.9522 27.5005 32.9522C27.66 32.9522 27.8295 32.8952 28.0095 32.7802C28.189 32.6649 28.4634 32.4263 28.8321 32.0632V32.5718ZM27.1379 30.8423C27.5125 30.4258 27.82 29.9535 28.0494 29.4424C28.2822 28.9254 28.3985 28.481 28.3985 28.1084C28.3985 27.9999 28.3825 27.9116 28.3501 27.8453C28.3178 27.7788 28.2762 27.7455 28.2262 27.7455C28.1174 27.7455 27.9587 28.0172 27.7507 28.5606C27.5426 29.104 27.3384 29.8646 27.1379 30.8423Z" fill="#010101"/>
<path d="M32.1415 32.5717C31.767 32.9408 31.4309 33.2131 31.1328 33.3882C30.8349 33.5637 30.5064 33.6513 30.1464 33.6513C29.7452 33.6513 29.4215 33.523 29.1749 33.2668C28.9289 33.0097 28.8059 32.6723 28.8059 32.2535C28.8059 31.6284 29.0224 31.0627 29.4566 30.5569C29.8897 30.0508 30.3706 29.7981 30.8985 29.7981C31.1729 29.7981 31.3923 29.869 31.5577 30.0106C31.7228 30.1524 31.8055 30.3378 31.8055 30.568C31.8055 31.1786 31.1567 31.6738 29.8589 32.0544C29.9768 32.6292 30.2849 32.9171 30.7835 32.9171C30.9783 32.9171 31.1639 32.8648 31.3407 32.7603C31.518 32.6554 31.7847 32.4229 32.1415 32.0633V32.5717ZM29.8232 31.7534C30.578 31.5409 30.9558 31.149 30.9558 30.5768C30.9558 30.2936 30.8524 30.1522 30.6463 30.1522C30.4515 30.1522 30.2659 30.3002 30.0891 30.5968C29.9116 30.8931 29.8232 31.2784 29.8232 31.7534Z" fill="#010101"/>
<path d="M36.8663 32.5719C36.3943 33.02 36.0565 33.3124 35.8533 33.4483C35.6497 33.5839 35.4551 33.6515 35.2692 33.6515C34.8031 33.6515 34.5836 33.2402 34.61 32.4173C34.3152 32.8389 34.0429 33.15 33.7937 33.351C33.5446 33.5516 33.2874 33.6515 33.0216 33.6515C32.7624 33.6515 32.5421 33.5301 32.3603 33.2868C32.1787 33.0434 32.0885 32.745 32.0885 32.3907C32.0885 31.9486 32.2099 31.5267 32.453 31.1254C32.6966 30.7242 33.0084 30.4002 33.3888 30.1524C33.7692 29.9046 34.1057 29.7805 34.3973 29.7805C34.7662 29.7805 35.0243 29.9503 35.1718 30.2892L36.0759 29.7896H36.3242L35.9335 31.0856C35.733 31.7376 35.6324 32.1845 35.6324 32.4263C35.6324 32.6798 35.7221 32.8067 35.9023 32.8067C36.0168 32.8067 36.1437 32.7455 36.2824 32.623C36.421 32.5005 36.6153 32.3139 36.866 32.0632V32.5719H36.8663ZM33.6279 32.8155C33.9228 32.8155 34.2006 32.564 34.4622 32.0613C34.7232 31.5583 34.8536 31.0941 34.8536 30.6695C34.8536 30.5046 34.8164 30.3753 34.7431 30.2826C34.6691 30.1894 34.5703 30.1433 34.4466 30.1433C34.1516 30.1433 33.8718 30.3939 33.6084 30.8954C33.3444 31.397 33.2122 31.8584 33.2122 32.2798C33.2122 32.4393 33.2514 32.5684 33.3296 32.6672C33.4075 32.7662 33.5067 32.8155 33.6279 32.8155Z" fill="#010101"/>
<path d="M40.1711 32.5718C39.4307 33.2972 38.8599 33.6602 38.4588 33.6602C38.2788 33.6602 38.1268 33.5843 38.0032 33.4328C37.8796 33.2808 37.8174 33.0927 37.8174 32.8684C37.8174 32.4525 38.0404 31.8953 38.4856 31.1962C38.2671 31.3084 38.0285 31.3862 37.7689 31.4306C37.5772 31.7845 37.2761 32.165 36.8662 32.5717H36.7647V32.174C36.9943 31.9356 37.203 31.678 37.3885 31.404C37.1345 31.2919 37.008 31.1251 37.008 30.9044C37.008 30.677 37.085 30.4345 37.2404 30.176C37.3951 29.9184 37.6081 29.7894 37.8796 29.7894C38.1097 29.7894 38.2245 29.907 38.2245 30.1431C38.2245 30.329 38.1582 30.5942 38.0253 30.9395C38.5147 30.8862 38.9425 30.5121 39.3085 29.8157L39.7108 29.7979L39.2993 30.9305C39.1285 31.4083 39.0178 31.7337 38.9678 31.9061C38.9177 32.0784 38.8925 32.2313 38.8925 32.3639C38.8925 32.4879 38.9214 32.587 38.9787 32.6602C39.0362 32.7345 39.1137 32.7711 39.2111 32.7711C39.3171 32.7711 39.419 32.7347 39.5164 32.663C39.6136 32.5901 39.8319 32.3904 40.1712 32.0632L40.1711 32.5718Z" fill="#010101"/>
<path d="M44.5157 32.5718C43.8344 33.2919 43.2501 33.6515 42.7637 33.6515C42.5661 33.6515 42.4067 33.5823 42.2858 33.4436C42.1647 33.305 42.1044 33.1193 42.1044 32.8864C42.1044 32.5707 42.2342 32.0885 42.4939 31.4399C42.6324 31.0917 42.7019 30.8702 42.7019 30.7762C42.7019 30.6817 42.6647 30.6344 42.5914 30.6344C42.5501 30.6344 42.4953 30.6553 42.4276 30.6963C42.3654 30.7376 42.2932 30.7955 42.2105 30.8691C42.137 30.9368 42.0542 31.0193 41.9628 31.1163C41.8748 31.2085 41.7894 31.3029 41.7065 31.3997L41.4584 31.6875C41.3495 31.8201 41.2816 31.96 41.2552 32.1075C41.2136 32.336 41.184 32.5666 41.1665 32.7981C41.1574 32.9541 41.1532 33.1647 41.1532 33.4308L40.1754 33.6604C40.1432 33.2623 40.1266 32.9658 40.1266 32.7714C40.1266 32.2965 40.182 31.8467 40.2928 31.4221C40.4033 30.997 40.5808 30.5196 40.8258 29.9885L41.9051 29.7806C41.678 30.3913 41.5292 30.8718 41.4584 31.2227C41.9421 30.683 42.3255 30.3095 42.6098 30.1013C42.8936 29.8932 43.1463 29.7896 43.3672 29.7896C43.5173 29.7896 43.6427 29.8463 43.7426 29.9595C43.843 30.0731 43.8928 30.2155 43.8928 30.3857C43.8928 30.6685 43.766 31.1346 43.5128 31.7837C43.3385 32.2289 43.2516 32.5177 43.2516 32.6511C43.2516 32.8287 43.3239 32.9175 43.4687 32.9175C43.6845 32.9175 44.0336 32.6327 44.5157 32.0635V32.5718Z" fill="#010101"/>
<path d="M30.5058 27.6158C30.5129 27.694 30.5324 27.7539 30.5644 27.7955C30.6235 27.871 30.7259 27.9088 30.8716 27.9088C30.9584 27.9088 31.0348 27.89 31.1008 27.8527C31.1666 27.8146 31.1996 27.756 31.1996 27.677C31.1996 27.6171 31.1732 27.5716 31.1203 27.5404C31.0864 27.5213 31.0196 27.4992 30.9198 27.4739L30.7337 27.4272C30.6147 27.3977 30.5271 27.3647 30.4707 27.3282C30.3702 27.2649 30.3197 27.1772 30.3197 27.0652C30.3197 26.9334 30.3671 26.8266 30.4616 26.7451C30.5571 26.6635 30.685 26.6227 30.8457 26.6227C31.0556 26.6227 31.207 26.6844 31.2999 26.8075C31.358 26.8857 31.3862 26.9698 31.3844 27.0601H31.1633C31.1591 27.0075 31.1396 26.9573 31.1072 26.9156C31.0534 26.854 30.9602 26.8232 30.8274 26.8232C30.7388 26.8232 30.6716 26.84 30.6256 26.874C30.6042 26.8891 30.5868 26.9092 30.575 26.9325C30.5632 26.9559 30.5574 26.9819 30.558 27.008C30.558 27.0687 30.5878 27.1174 30.6477 27.1538C30.6825 27.1756 30.7337 27.1946 30.8013 27.2111L30.9563 27.2488C31.1247 27.2896 31.2374 27.3292 31.2947 27.3673C31.3859 27.4272 31.4314 27.5213 31.4314 27.6498C31.4314 27.7737 31.3841 27.8811 31.2895 27.9712C31.1958 28.0615 31.0526 28.1066 30.8599 28.1066C30.6525 28.1066 30.5055 28.0598 30.4187 27.9661C30.3329 27.8714 30.2867 27.7547 30.2806 27.6158H30.5058ZM32.2371 26.6189C32.3941 26.6189 32.5217 26.657 32.6197 26.7334C32.7187 26.8098 32.7781 26.9413 32.7981 27.1278H32.5702C32.5565 27.0418 32.5247 26.9707 32.4753 26.9143C32.4258 26.857 32.3463 26.8283 32.2371 26.8283C32.0878 26.8283 31.981 26.9012 31.9168 27.0471C31.8752 27.1416 31.8543 27.2584 31.8543 27.3972C31.8543 27.5369 31.884 27.6544 31.9429 27.7499C32.0018 27.8453 32.0947 27.8931 32.2214 27.8931C32.3186 27.8931 32.3955 27.8636 32.4519 27.8047C32.5091 27.7448 32.5486 27.6632 32.5702 27.5599H32.7981C32.772 27.7448 32.707 27.8801 32.6029 27.9661C32.4986 28.0511 32.3656 28.0936 32.2032 28.0936C32.0211 28.0936 31.8756 28.0273 31.7672 27.8945C31.6588 27.7608 31.6045 27.5942 31.6045 27.3947C31.6045 27.1499 31.6639 26.9594 31.7827 26.8232C31.9017 26.6869 32.0531 26.6189 32.2371 26.6189ZM33.0324 26.6656H33.2706V28.0532H33.0324V26.6656ZM33.0324 26.1411H33.2706V26.4067H33.0324V26.1411ZM33.6207 26.1411H33.8459V27.2515L34.4473 26.6592H34.7466L34.213 27.1812L34.7765 28.0532H34.4772L34.0424 27.3503L33.8459 27.53V28.0532H33.6207V26.1411ZM34.9588 26.6656H35.197V28.0532H34.9588V26.6656ZM34.9588 26.1411H35.197V26.4067H34.9588V26.1411ZM35.5993 26.27H35.8361V26.6592H36.0588V26.8504H35.8361V27.7603C35.8361 27.809 35.8526 27.8415 35.8856 27.858C35.9037 27.8676 35.9342 27.8722 35.9766 27.8722H36.0131C36.0261 27.8714 36.0413 27.8702 36.0588 27.8684V28.0532C36.031 28.0612 36.0027 28.0669 35.974 28.0702C35.9429 28.0737 35.9116 28.0754 35.8803 28.0753C35.771 28.0753 35.6968 28.0476 35.6577 27.992C35.6186 27.9357 35.5993 27.8628 35.5993 27.7734V26.8504H35.4104V26.6592H35.5993V26.27Z" fill="white"/>
</g>
</svg>
