<svg width="56" height="56" viewBox="0 0 56 56" fill="none" xmlns="http://www.w3.org/2000/svg">
<g clip-path="url(#clip0_109_406)">
<path d="M19.6008 31.5491C19.6008 33.3244 18.153 34.7743 16.3776 34.7743C14.6023 34.7743 13.1526 33.3244 13.1526 31.5491C13.1526 29.7739 14.6026 28.3239 16.3778 28.3239H19.6011L19.6008 31.5491ZM21.2257 31.5491C21.2257 29.7739 22.6756 28.3239 24.4509 28.3239C26.2261 28.3239 27.6761 29.7736 27.6761 31.5491V39.6224C27.6761 41.3977 26.2264 42.8477 24.4509 42.8477C22.6756 42.8477 21.2257 41.3977 21.2257 39.6224V31.5491Z" fill="#DE1C59"/>
<path d="M24.4509 18.6008C22.6756 18.6008 21.2257 17.153 21.2257 15.3776C21.2257 13.6023 22.6756 12.1526 24.4509 12.1526C26.2261 12.1526 27.6761 13.6026 27.6761 15.3778V18.6011L24.4509 18.6008ZM24.4509 20.2257C26.2261 20.2257 27.6761 21.6756 27.6761 23.4509C27.6761 25.2261 26.2264 26.6761 24.4509 26.6761H16.3776C14.6023 26.6761 13.1526 25.2264 13.1526 23.4509C13.1526 21.6756 14.6026 20.2257 16.3778 20.2257H24.4509Z" fill="#35C5F0"/>
<path d="M37.3992 23.4509C37.3992 21.6756 38.847 20.2257 40.6224 20.2257C42.3977 20.2257 43.8477 21.6756 43.8477 23.4509C43.8477 25.2261 42.3977 26.6761 40.6224 26.6761H37.3992V23.4509ZM35.7743 23.4509C35.7743 25.2261 34.3244 26.6761 32.5491 26.6761C30.7739 26.6761 29.3239 25.2264 29.3239 23.4509V15.3776C29.3239 13.6023 30.7736 12.1526 32.5491 12.1526C34.3244 12.1526 35.7743 13.6026 35.7743 15.3778V23.4509Z" fill="#2EB57D"/>
<path d="M32.5491 36.3992C34.3244 36.3992 35.7743 37.847 35.7743 39.6224C35.7743 41.3977 34.3244 42.8477 32.5491 42.8477C30.7739 42.8477 29.3239 41.3977 29.3239 39.6224V36.3992H32.5491ZM32.5491 34.7743C30.7739 34.7743 29.3239 33.3244 29.3239 31.5491C29.3239 29.7739 30.7736 28.3239 32.5491 28.3239H40.6224C42.3977 28.3239 43.8477 29.7736 43.8477 31.5491C43.8477 33.3244 42.3977 34.7743 40.6224 34.7743H32.5491Z" fill="#EBB02E"/>
</g>
<defs>
<clipPath id="clip0_109_406">
<rect width="31" height="31" fill="white" transform="translate(13 12)"/>
</clipPath>
</defs>
</svg>
