<svg width="56" height="56" viewBox="0 0 56 56" fill="none" xmlns="http://www.w3.org/2000/svg">
<g clip-path="url(#clip0_106_197)">
<path d="M22.4764 27.3198C21.8636 27.3198 21.3652 27.5059 20.9832 27.8775C20.6013 28.2496 20.4075 28.7373 20.4075 29.335C20.4075 29.6447 20.4556 29.927 20.5503 30.1858C20.6452 30.445 20.7928 30.6853 20.9912 30.9024C21.1896 31.1195 21.5867 31.4145 22.1785 31.7898C22.9048 32.2442 23.38 32.6131 23.6081 32.9011C23.8363 33.1889 23.9496 33.4904 23.9496 33.8049C23.9496 34.2258 23.8145 34.5619 23.5366 34.8144C23.2583 35.0672 22.8861 35.193 22.4248 35.193C21.9381 35.193 21.5141 35.0172 21.15 34.668C20.786 34.3182 20.6022 33.8555 20.598 33.2756H20.3716V35.3803H20.598C20.6672 35.181 20.7628 35.0791 20.888 35.0791C20.9482 35.0791 21.0892 35.1216 21.3089 35.2012C21.8434 35.3962 22.2823 35.4902 22.6273 35.4902C23.2218 35.4902 23.7293 35.2768 24.1521 34.843C24.5744 34.4094 24.7875 33.8863 24.7875 33.2756C24.7875 32.8022 24.6468 32.3808 24.3706 32.0137C24.0943 31.646 23.5571 31.2184 22.7543 30.7273C22.0635 30.3017 21.6151 29.9552 21.4082 29.6851C21.2009 29.4153 21.0944 29.1169 21.0944 28.7895C21.0944 28.4353 21.2214 28.1508 21.4717 27.9386C21.722 27.7263 22.05 27.6211 22.4605 27.6211C22.9223 27.6211 23.3074 27.7617 23.612 28.0445C23.9164 28.3278 24.0924 28.7205 24.1442 29.225H24.3706V27.4013H24.1601C24.1343 27.4943 24.1105 27.5537 24.0886 27.5804C24.0673 27.6069 24.0263 27.6211 23.9655 27.6211C23.8923 27.6211 23.7617 27.5895 23.5763 27.5274C23.1792 27.3904 22.8131 27.3198 22.4763 27.3198M29.8742 27.3198C29.1275 27.3198 28.4496 27.5004 27.8371 27.8613C27.2237 28.2216 26.7381 28.722 26.3798 29.3594C26.0216 29.9968 25.8437 30.6736 25.8437 31.3949C25.8437 32.3639 26.1531 33.2273 26.7769 33.984C27.4009 34.7402 28.1488 35.2114 29.0165 35.3926C29.2149 35.4985 29.4987 35.772 29.8703 36.2149C30.289 36.7146 30.6432 37.075 30.9345 37.2896C31.2192 37.5 31.5358 37.661 31.8716 37.7659C32.204 37.8697 32.5633 37.9207 32.9517 37.9207C33.4223 37.9207 33.8434 37.8368 34.2145 37.6642L34.1311 37.4524C33.9158 37.5321 33.686 37.5705 33.4442 37.5705C33.1158 37.5705 32.784 37.4595 32.4514 37.2367C32.1193 37.0133 31.7039 36.5871 31.2085 35.9584C30.9756 35.6572 30.8149 35.4671 30.724 35.3926C31.6734 35.2025 32.4541 34.7308 33.063 33.9758C33.6716 33.2213 33.9762 32.3601 33.9762 31.3948C33.9762 30.2489 33.5785 29.2856 32.7889 28.5004C31.9987 27.715 31.0269 27.3198 29.8742 27.3198ZM34.4925 27.3198L34.5044 27.5681C35.0015 27.5681 35.28 27.7183 35.3423 28.02C35.3655 28.128 35.3761 28.3274 35.378 28.6144L35.374 34.1061C35.3699 34.5163 35.3129 34.7781 35.2033 34.8918C35.0935 35.0046 34.908 35.0754 34.6395 35.1035L34.6275 35.3519H39.5833L39.7104 34.1061H39.484C39.4193 34.4455 39.2712 34.6886 39.0353 34.8267C38.7988 34.9658 38.3806 35.0343 37.7765 35.0343H37.3079C36.7644 35.0343 36.4499 34.8329 36.3668 34.4277C36.3497 34.3475 36.3438 34.2616 36.343 34.1672L36.3628 28.6144C36.3628 28.2049 36.4132 27.9305 36.5177 27.7961C36.6233 27.6623 36.8138 27.5874 37.0895 27.5681L37.0776 27.3198H34.4925ZM29.9536 27.621C30.7959 27.621 31.4834 27.9612 32.0146 28.647C32.5456 29.3331 32.8088 30.2734 32.8088 31.4641C32.8088 32.5924 32.5418 33.4958 32.0067 34.1753C31.4715 34.8547 30.7593 35.1931 29.8742 35.1931C29.024 35.1931 28.3344 34.8441 27.8053 34.1428C27.2767 33.4414 27.0151 32.5309 27.0151 31.4111C27.0151 30.2606 27.2799 29.3395 27.8133 28.651C28.3464 27.9634 29.0602 27.6211 29.9537 27.6211M41.3505 28.8018C41.2296 28.8018 41.1375 28.8436 41.0686 28.928C40.9981 29.012 40.9764 29.1138 41.001 29.2374C41.0248 29.3573 41.0909 29.4623 41.1956 29.5508C41.2998 29.6392 41.4122 29.6852 41.5332 29.6852C41.6501 29.6852 41.7392 29.6392 41.8032 29.5508C41.8672 29.4624 41.8867 29.3573 41.8627 29.2374C41.8381 29.1138 41.7744 29.012 41.6761 28.9279C41.5767 28.8436 41.4674 28.8017 41.3505 28.8017M44.6186 29.6444C44.4132 30.4544 43.968 30.8927 43.2844 30.9633L43.2923 31.1954H44.0905L44.0746 33.9392C44.0758 34.4083 44.0899 34.7207 44.1222 34.8796C44.2009 35.2601 44.4433 35.4536 44.8489 35.4536C45.4359 35.4536 46.0515 35.0871 46.6954 34.3545L46.5009 34.1835C46.036 34.666 45.6249 34.9081 45.2659 34.9081C45.0453 34.9081 44.9085 34.778 44.8569 34.5214C44.8427 34.459 44.8371 34.3861 44.8371 34.3015L44.845 31.1954H46.0641L46.0521 30.8249H44.8489V29.6444H44.6186ZM49.3321 30.6784C48.6502 30.6784 48.0956 31.0178 47.6644 31.6921C47.2354 32.3675 47.1026 33.1158 47.2712 33.9392C47.3705 34.4215 47.5682 34.7953 47.8708 35.0587C48.173 35.3221 48.5563 35.4536 49.0145 35.4536C49.4411 35.4536 50.0352 35.3428 50.2852 35.1198C50.5359 34.8969 50.7668 34.5356 50.9801 34.041L50.8094 33.8577C50.4691 34.4995 49.7825 34.8226 49.2647 34.8226C48.5528 34.8226 48.1167 34.4222 47.9542 33.6257C47.9324 33.5182 47.9165 33.4094 47.9066 33.3C48.7536 33.1626 49.3954 32.9192 49.8285 32.5673C50.2614 32.2152 50.696 31.842 50.6148 31.4478C50.5665 31.2135 50.4479 31.0293 50.2654 30.8901C50.0805 30.7509 49.6005 30.6784 49.3321 30.6784ZM41.8787 30.7069L40.4094 31.0529V31.3216L40.9176 31.2565C41.1638 31.2565 41.3087 31.3707 41.3545 31.5984C41.3698 31.6746 41.3796 31.7817 41.3823 31.916L41.3663 34.3789C41.3623 34.7197 41.3254 34.9178 41.2512 34.9773C41.1764 35.0369 40.9791 35.0669 40.6595 35.0669L40.6516 35.2989H42.9825L42.9786 35.0668C42.6547 35.0668 42.4447 35.0406 42.3512 34.9894C42.2592 34.9388 42.1958 34.8462 42.1685 34.7045C42.1474 34.6025 42.1382 34.4266 42.1367 34.1835L42.1447 30.7069H41.8787ZM48.9589 31.1628C49.1008 31.1628 49.2378 31.219 49.3758 31.3297C49.512 31.4401 49.5949 31.5627 49.6221 31.6961C49.755 32.351 49.1888 32.8036 47.9145 33.0558C47.8782 32.5784 47.9589 32.1449 48.1647 31.7531C48.369 31.3617 48.6351 31.1628 48.9589 31.1628Z" fill="white"/>
<path d="M19.1853 17.9166H6.54082C5.69332 17.9166 5 18.6275 5 19.4962V33.7917C5 34.6604 5.69332 35.3713 6.54082 35.3713H14.8687C14.7742 31.1232 16.1892 22.8791 19.1853 17.9166Z" fill="#0F80CC"/>
<path d="M18.7259 18.3774H6.54082C5.93905 18.3774 5.4494 18.8793 5.4494 19.4963V32.7487C8.20904 31.663 12.3509 30.7261 15.2148 30.7686C15.7903 27.6837 17.4817 21.6379 18.7259 18.3774Z" fill="url(#paint0_linear_106_197)"/>
<path d="M22.1346 17.4487C21.2685 16.6571 20.22 16.975 19.1853 17.9166C19.0316 18.0565 18.8783 18.2117 18.7259 18.3774C16.9556 20.3027 15.3124 23.8688 14.8019 26.5923C15.0008 27.0058 15.1561 27.5333 15.2584 27.9364C15.2846 28.0397 15.3082 28.1368 15.3272 28.2193C15.3721 28.4148 15.3963 28.5414 15.3963 28.5414C15.3963 28.5414 15.3804 28.4799 15.3152 28.2863C15.3028 28.2492 15.289 28.2087 15.2726 28.161C15.2641 28.1376 15.255 28.1145 15.2453 28.0917C15.1299 27.8165 14.8105 27.2357 14.6699 26.9827C14.5584 27.3178 14.4533 27.6551 14.3544 27.9943C14.7603 28.7556 15.0076 30.0602 15.0076 30.0602C15.0076 30.0602 14.9861 29.9756 14.8842 29.6805C14.7936 29.4196 14.3427 28.6095 14.2358 28.4201C14.0531 29.1118 13.9805 29.5786 14.046 29.6923C14.1731 29.9125 14.2942 30.2926 14.4005 30.7129C14.6407 31.6598 14.8075 32.8125 14.8075 32.8125C14.8075 32.8125 14.8129 32.889 14.8221 33.0065C14.7887 33.8017 14.8087 34.6261 14.8688 35.3712C14.9483 36.3577 15.0981 37.205 15.289 37.6586L15.4186 37.5862C15.1383 36.6927 15.0244 35.5217 15.0743 34.1713C15.1497 32.1072 15.6131 29.6179 16.4692 27.0234C17.9157 23.1068 19.9224 19.9643 21.7591 18.4636C20.085 20.0135 17.8194 25.0304 17.1411 26.8882C16.3817 28.9686 15.8435 30.9209 15.5192 32.7914C16.0788 31.0378 17.8882 30.2841 17.8882 30.2841C17.8882 30.2841 18.7756 29.162 19.8126 27.559C19.1915 27.7043 18.1714 27.953 17.8297 28.1002C17.3257 28.3169 17.1899 28.3908 17.1899 28.3908C17.1899 28.3908 18.8224 27.3716 20.223 26.9102C22.1493 23.8 24.2479 19.3815 22.1346 17.4487Z" fill="white"/>
</g>
<defs>
<linearGradient id="paint0_linear_106_197" x1="770.998" y1="47.7811" x2="770.998" y2="1375.59" gradientUnits="userSpaceOnUse">
<stop stop-color="#97D9F6"/>
<stop offset="0.92024" stop-color="#0F80CC"/>
<stop offset="1" stop-color="#0F80CC"/>
</linearGradient>
<clipPath id="clip0_106_197">
<rect width="46" height="21" fill="white" transform="translate(5 17)"/>
</clipPath>
</defs>
</svg>
