<svg width="56" height="56" viewBox="0 0 56 56" fill="none" xmlns="http://www.w3.org/2000/svg">
<path d="M31.5404 47.3849C30.596 48.575 28.6775 47.9231 28.6564 46.4029L28.3222 24.1723H43.2711C45.9782 24.1723 47.4877 27.2991 45.8042 29.4185L31.5404 47.3849Z" fill="url(#paint0_linear_106_195)"/>
<path d="M31.5404 47.3849C30.596 48.575 28.6775 47.9231 28.6564 46.4029L28.3222 24.1723H43.2711C45.9782 24.1723 47.4877 27.2991 45.8042 29.4185L31.5404 47.3849Z" fill="url(#paint1_linear_106_195)" fill-opacity="0.2"/>
<path d="M25.4602 11.6151C26.4046 10.425 28.3234 11.0769 28.3442 12.5968L28.491 34.8277H13.7295C11.0224 34.8277 9.51293 31.7009 11.1961 29.5815L25.4602 11.6151Z" fill="#3ECF8E"/>
<defs>
<linearGradient id="paint0_linear_106_195" x1="28.3236" y1="29.1029" x2="41.6089" y2="34.6747" gradientUnits="userSpaceOnUse">
<stop stop-color="#249361"/>
<stop offset="1" stop-color="#3ECF8E"/>
</linearGradient>
<linearGradient id="paint1_linear_106_195" x1="22.4335" y1="21.0383" x2="28.4922" y2="32.444" gradientUnits="userSpaceOnUse">
<stop/>
<stop offset="1" stop-opacity="0"/>
</linearGradient>
</defs>
</svg>
