<svg width="56" height="56" viewBox="0 0 56 56" fill="none" xmlns="http://www.w3.org/2000/svg">
<g clip-path="url(#clip0_109_286)">
<path d="M30.6465 16.0662V21.133L39.4695 26.1999V21.133L30.6465 16.0662ZM13 21.133V26.1999L17.4114 28.7327V23.6665L13 21.133ZM26.2345 23.6665L21.823 26.1998V41.399L26.2345 43.9324V33.7994L30.6465 36.3328V31.266L26.2345 28.7327V23.6665Z" fill="#E55B2D"/>
<path d="M30.6465 16.0662L17.4114 23.6665V28.7327L26.2345 23.6665V28.7327L30.6465 26.1999V16.0662ZM43.8816 18.5996L39.4695 21.133V26.1999L43.8816 23.6665V18.5996ZM35.0581 28.7327L30.6466 31.2661V36.3329L35.0581 33.7994V28.7327ZM30.6466 36.3329L26.2345 33.7994V43.9324L30.6465 41.399L30.6466 36.3329Z" fill="#ED8E24"/>
<path d="M30.6465 11L13 21.133L17.4114 23.6665L30.6465 16.0662L39.4695 21.133L43.8816 18.5996L30.6465 11ZM30.6465 26.1998L26.2345 28.7326L30.6465 31.2661L35.058 28.7327L30.6465 26.1998Z" fill="#F8BF3C"/>
</g>
<defs>
<clipPath id="clip0_109_286">
<rect width="31" height="33" fill="white" transform="translate(13 11)"/>
</clipPath>
</defs>
</svg>
